%TF.GenerationSoftware,KiCad,Pcbnew,7.0.7*%
%TF.CreationDate,2024-01-03T18:52:02-05:00*%
%TF.ProjectId,sunlight_pcb,73756e6c-6967-4687-945f-7063622e6b69,rev?*%
%TF.SameCoordinates,Original*%
%TF.FileFunction,Drillmap*%
%TF.FilePolarity,Positive*%
%FSLAX45Y45*%
G04 Gerber Fmt 4.5, Leading zero omitted, Abs format (unit mm)*
G04 Created by KiCad (PCBNEW 7.0.7) date 2024-01-03 18:52:02*
%MOMM*%
%LPD*%
G01*
G04 APERTURE LIST*
%ADD10C,0.150000*%
%ADD11C,0.200000*%
%ADD12C,0.320000*%
G04 APERTURE END LIST*
D10*
X8200000Y-13675000D02*
X8200000Y-4325000D01*
X18275000Y-14400000D02*
X8925000Y-14400000D01*
X19000000Y-4325000D02*
X19000000Y-13675000D01*
X8925000Y-3600000D02*
X18275000Y-3600000D01*
X8200000Y-4325000D02*
X8925000Y-3600000D01*
X8200000Y-13675000D02*
X8925000Y-14400000D01*
X18275000Y-14400000D02*
X19000000Y-13675000D01*
X18275000Y-3600000D02*
X19000000Y-4325000D01*
D11*
D12*
X8490000Y-4340000D02*
X8810000Y-4660000D01*
X8810000Y-4340000D02*
X8490000Y-4660000D01*
X8490000Y-13340000D02*
X8810000Y-13660000D01*
X8810000Y-13340000D02*
X8490000Y-13660000D01*
X18490000Y-4340000D02*
X18810000Y-4660000D01*
X18810000Y-4340000D02*
X18490000Y-4660000D01*
X18490000Y-13340000D02*
X18810000Y-13660000D01*
X18810000Y-13340000D02*
X18490000Y-13660000D01*
D11*
X8453277Y-14718984D02*
X8453277Y-14518984D01*
X8453277Y-14518984D02*
X8500896Y-14518984D01*
X8500896Y-14518984D02*
X8529467Y-14528508D01*
X8529467Y-14528508D02*
X8548515Y-14547555D01*
X8548515Y-14547555D02*
X8558039Y-14566603D01*
X8558039Y-14566603D02*
X8567563Y-14604698D01*
X8567563Y-14604698D02*
X8567563Y-14633269D01*
X8567563Y-14633269D02*
X8558039Y-14671365D01*
X8558039Y-14671365D02*
X8548515Y-14690412D01*
X8548515Y-14690412D02*
X8529467Y-14709460D01*
X8529467Y-14709460D02*
X8500896Y-14718984D01*
X8500896Y-14718984D02*
X8453277Y-14718984D01*
X8653277Y-14718984D02*
X8653277Y-14585650D01*
X8653277Y-14623746D02*
X8662801Y-14604698D01*
X8662801Y-14604698D02*
X8672324Y-14595174D01*
X8672324Y-14595174D02*
X8691372Y-14585650D01*
X8691372Y-14585650D02*
X8710420Y-14585650D01*
X8777086Y-14718984D02*
X8777086Y-14585650D01*
X8777086Y-14518984D02*
X8767563Y-14528508D01*
X8767563Y-14528508D02*
X8777086Y-14538031D01*
X8777086Y-14538031D02*
X8786610Y-14528508D01*
X8786610Y-14528508D02*
X8777086Y-14518984D01*
X8777086Y-14518984D02*
X8777086Y-14538031D01*
X8900896Y-14718984D02*
X8881848Y-14709460D01*
X8881848Y-14709460D02*
X8872324Y-14690412D01*
X8872324Y-14690412D02*
X8872324Y-14518984D01*
X9005658Y-14718984D02*
X8986610Y-14709460D01*
X8986610Y-14709460D02*
X8977086Y-14690412D01*
X8977086Y-14690412D02*
X8977086Y-14518984D01*
X9234229Y-14718984D02*
X9234229Y-14518984D01*
X9234229Y-14518984D02*
X9300896Y-14661841D01*
X9300896Y-14661841D02*
X9367563Y-14518984D01*
X9367563Y-14518984D02*
X9367563Y-14718984D01*
X9548515Y-14718984D02*
X9548515Y-14614222D01*
X9548515Y-14614222D02*
X9538991Y-14595174D01*
X9538991Y-14595174D02*
X9519944Y-14585650D01*
X9519944Y-14585650D02*
X9481848Y-14585650D01*
X9481848Y-14585650D02*
X9462801Y-14595174D01*
X9548515Y-14709460D02*
X9529467Y-14718984D01*
X9529467Y-14718984D02*
X9481848Y-14718984D01*
X9481848Y-14718984D02*
X9462801Y-14709460D01*
X9462801Y-14709460D02*
X9453277Y-14690412D01*
X9453277Y-14690412D02*
X9453277Y-14671365D01*
X9453277Y-14671365D02*
X9462801Y-14652317D01*
X9462801Y-14652317D02*
X9481848Y-14642793D01*
X9481848Y-14642793D02*
X9529467Y-14642793D01*
X9529467Y-14642793D02*
X9548515Y-14633269D01*
X9643753Y-14585650D02*
X9643753Y-14785650D01*
X9643753Y-14595174D02*
X9662801Y-14585650D01*
X9662801Y-14585650D02*
X9700896Y-14585650D01*
X9700896Y-14585650D02*
X9719944Y-14595174D01*
X9719944Y-14595174D02*
X9729467Y-14604698D01*
X9729467Y-14604698D02*
X9738991Y-14623746D01*
X9738991Y-14623746D02*
X9738991Y-14680888D01*
X9738991Y-14680888D02*
X9729467Y-14699936D01*
X9729467Y-14699936D02*
X9719944Y-14709460D01*
X9719944Y-14709460D02*
X9700896Y-14718984D01*
X9700896Y-14718984D02*
X9662801Y-14718984D01*
X9662801Y-14718984D02*
X9643753Y-14709460D01*
X9824705Y-14699936D02*
X9834229Y-14709460D01*
X9834229Y-14709460D02*
X9824705Y-14718984D01*
X9824705Y-14718984D02*
X9815182Y-14709460D01*
X9815182Y-14709460D02*
X9824705Y-14699936D01*
X9824705Y-14699936D02*
X9824705Y-14718984D01*
X9824705Y-14595174D02*
X9834229Y-14604698D01*
X9834229Y-14604698D02*
X9824705Y-14614222D01*
X9824705Y-14614222D02*
X9815182Y-14604698D01*
X9815182Y-14604698D02*
X9824705Y-14595174D01*
X9824705Y-14595174D02*
X9824705Y-14614222D01*
X7992500Y-14947500D02*
X8192500Y-15147500D01*
X8192500Y-14947500D02*
X7992500Y-15147500D01*
X8434229Y-14938984D02*
X8558039Y-14938984D01*
X8558039Y-14938984D02*
X8491372Y-15015174D01*
X8491372Y-15015174D02*
X8519944Y-15015174D01*
X8519944Y-15015174D02*
X8538991Y-15024698D01*
X8538991Y-15024698D02*
X8548515Y-15034222D01*
X8548515Y-15034222D02*
X8558039Y-15053269D01*
X8558039Y-15053269D02*
X8558039Y-15100888D01*
X8558039Y-15100888D02*
X8548515Y-15119936D01*
X8548515Y-15119936D02*
X8538991Y-15129460D01*
X8538991Y-15129460D02*
X8519944Y-15138984D01*
X8519944Y-15138984D02*
X8462801Y-15138984D01*
X8462801Y-15138984D02*
X8443753Y-15129460D01*
X8443753Y-15129460D02*
X8434229Y-15119936D01*
X8643753Y-15119936D02*
X8653277Y-15129460D01*
X8653277Y-15129460D02*
X8643753Y-15138984D01*
X8643753Y-15138984D02*
X8634229Y-15129460D01*
X8634229Y-15129460D02*
X8643753Y-15119936D01*
X8643753Y-15119936D02*
X8643753Y-15138984D01*
X8729467Y-14958031D02*
X8738991Y-14948508D01*
X8738991Y-14948508D02*
X8758039Y-14938984D01*
X8758039Y-14938984D02*
X8805658Y-14938984D01*
X8805658Y-14938984D02*
X8824705Y-14948508D01*
X8824705Y-14948508D02*
X8834229Y-14958031D01*
X8834229Y-14958031D02*
X8843753Y-14977079D01*
X8843753Y-14977079D02*
X8843753Y-14996127D01*
X8843753Y-14996127D02*
X8834229Y-15024698D01*
X8834229Y-15024698D02*
X8719944Y-15138984D01*
X8719944Y-15138984D02*
X8843753Y-15138984D01*
X8967563Y-14938984D02*
X8986610Y-14938984D01*
X8986610Y-14938984D02*
X9005658Y-14948508D01*
X9005658Y-14948508D02*
X9015182Y-14958031D01*
X9015182Y-14958031D02*
X9024705Y-14977079D01*
X9024705Y-14977079D02*
X9034229Y-15015174D01*
X9034229Y-15015174D02*
X9034229Y-15062793D01*
X9034229Y-15062793D02*
X9024705Y-15100888D01*
X9024705Y-15100888D02*
X9015182Y-15119936D01*
X9015182Y-15119936D02*
X9005658Y-15129460D01*
X9005658Y-15129460D02*
X8986610Y-15138984D01*
X8986610Y-15138984D02*
X8967563Y-15138984D01*
X8967563Y-15138984D02*
X8948515Y-15129460D01*
X8948515Y-15129460D02*
X8938991Y-15119936D01*
X8938991Y-15119936D02*
X8929467Y-15100888D01*
X8929467Y-15100888D02*
X8919944Y-15062793D01*
X8919944Y-15062793D02*
X8919944Y-15015174D01*
X8919944Y-15015174D02*
X8929467Y-14977079D01*
X8929467Y-14977079D02*
X8938991Y-14958031D01*
X8938991Y-14958031D02*
X8948515Y-14948508D01*
X8948515Y-14948508D02*
X8967563Y-14938984D01*
X9158039Y-14938984D02*
X9177086Y-14938984D01*
X9177086Y-14938984D02*
X9196134Y-14948508D01*
X9196134Y-14948508D02*
X9205658Y-14958031D01*
X9205658Y-14958031D02*
X9215182Y-14977079D01*
X9215182Y-14977079D02*
X9224705Y-15015174D01*
X9224705Y-15015174D02*
X9224705Y-15062793D01*
X9224705Y-15062793D02*
X9215182Y-15100888D01*
X9215182Y-15100888D02*
X9205658Y-15119936D01*
X9205658Y-15119936D02*
X9196134Y-15129460D01*
X9196134Y-15129460D02*
X9177086Y-15138984D01*
X9177086Y-15138984D02*
X9158039Y-15138984D01*
X9158039Y-15138984D02*
X9138991Y-15129460D01*
X9138991Y-15129460D02*
X9129467Y-15119936D01*
X9129467Y-15119936D02*
X9119944Y-15100888D01*
X9119944Y-15100888D02*
X9110420Y-15062793D01*
X9110420Y-15062793D02*
X9110420Y-15015174D01*
X9110420Y-15015174D02*
X9119944Y-14977079D01*
X9119944Y-14977079D02*
X9129467Y-14958031D01*
X9129467Y-14958031D02*
X9138991Y-14948508D01*
X9138991Y-14948508D02*
X9158039Y-14938984D01*
X9310420Y-15138984D02*
X9310420Y-15005650D01*
X9310420Y-15024698D02*
X9319944Y-15015174D01*
X9319944Y-15015174D02*
X9338991Y-15005650D01*
X9338991Y-15005650D02*
X9367563Y-15005650D01*
X9367563Y-15005650D02*
X9386610Y-15015174D01*
X9386610Y-15015174D02*
X9396134Y-15034222D01*
X9396134Y-15034222D02*
X9396134Y-15138984D01*
X9396134Y-15034222D02*
X9405658Y-15015174D01*
X9405658Y-15015174D02*
X9424705Y-15005650D01*
X9424705Y-15005650D02*
X9453277Y-15005650D01*
X9453277Y-15005650D02*
X9472325Y-15015174D01*
X9472325Y-15015174D02*
X9481848Y-15034222D01*
X9481848Y-15034222D02*
X9481848Y-15138984D01*
X9577086Y-15138984D02*
X9577086Y-15005650D01*
X9577086Y-15024698D02*
X9586610Y-15015174D01*
X9586610Y-15015174D02*
X9605658Y-15005650D01*
X9605658Y-15005650D02*
X9634229Y-15005650D01*
X9634229Y-15005650D02*
X9653277Y-15015174D01*
X9653277Y-15015174D02*
X9662801Y-15034222D01*
X9662801Y-15034222D02*
X9662801Y-15138984D01*
X9662801Y-15034222D02*
X9672325Y-15015174D01*
X9672325Y-15015174D02*
X9691372Y-15005650D01*
X9691372Y-15005650D02*
X9719944Y-15005650D01*
X9719944Y-15005650D02*
X9738991Y-15015174D01*
X9738991Y-15015174D02*
X9748515Y-15034222D01*
X9748515Y-15034222D02*
X9748515Y-15138984D01*
X10138991Y-14929460D02*
X9967563Y-15186603D01*
X10396134Y-14938984D02*
X10415182Y-14938984D01*
X10415182Y-14938984D02*
X10434229Y-14948508D01*
X10434229Y-14948508D02*
X10443753Y-14958031D01*
X10443753Y-14958031D02*
X10453277Y-14977079D01*
X10453277Y-14977079D02*
X10462801Y-15015174D01*
X10462801Y-15015174D02*
X10462801Y-15062793D01*
X10462801Y-15062793D02*
X10453277Y-15100888D01*
X10453277Y-15100888D02*
X10443753Y-15119936D01*
X10443753Y-15119936D02*
X10434229Y-15129460D01*
X10434229Y-15129460D02*
X10415182Y-15138984D01*
X10415182Y-15138984D02*
X10396134Y-15138984D01*
X10396134Y-15138984D02*
X10377087Y-15129460D01*
X10377087Y-15129460D02*
X10367563Y-15119936D01*
X10367563Y-15119936D02*
X10358039Y-15100888D01*
X10358039Y-15100888D02*
X10348515Y-15062793D01*
X10348515Y-15062793D02*
X10348515Y-15015174D01*
X10348515Y-15015174D02*
X10358039Y-14977079D01*
X10358039Y-14977079D02*
X10367563Y-14958031D01*
X10367563Y-14958031D02*
X10377087Y-14948508D01*
X10377087Y-14948508D02*
X10396134Y-14938984D01*
X10548515Y-15119936D02*
X10558039Y-15129460D01*
X10558039Y-15129460D02*
X10548515Y-15138984D01*
X10548515Y-15138984D02*
X10538991Y-15129460D01*
X10538991Y-15129460D02*
X10548515Y-15119936D01*
X10548515Y-15119936D02*
X10548515Y-15138984D01*
X10748515Y-15138984D02*
X10634229Y-15138984D01*
X10691372Y-15138984D02*
X10691372Y-14938984D01*
X10691372Y-14938984D02*
X10672325Y-14967555D01*
X10672325Y-14967555D02*
X10653277Y-14986603D01*
X10653277Y-14986603D02*
X10634229Y-14996127D01*
X10824706Y-14958031D02*
X10834229Y-14948508D01*
X10834229Y-14948508D02*
X10853277Y-14938984D01*
X10853277Y-14938984D02*
X10900896Y-14938984D01*
X10900896Y-14938984D02*
X10919944Y-14948508D01*
X10919944Y-14948508D02*
X10929468Y-14958031D01*
X10929468Y-14958031D02*
X10938991Y-14977079D01*
X10938991Y-14977079D02*
X10938991Y-14996127D01*
X10938991Y-14996127D02*
X10929468Y-15024698D01*
X10929468Y-15024698D02*
X10815182Y-15138984D01*
X10815182Y-15138984D02*
X10938991Y-15138984D01*
X11110420Y-14938984D02*
X11072325Y-14938984D01*
X11072325Y-14938984D02*
X11053277Y-14948508D01*
X11053277Y-14948508D02*
X11043753Y-14958031D01*
X11043753Y-14958031D02*
X11024706Y-14986603D01*
X11024706Y-14986603D02*
X11015182Y-15024698D01*
X11015182Y-15024698D02*
X11015182Y-15100888D01*
X11015182Y-15100888D02*
X11024706Y-15119936D01*
X11024706Y-15119936D02*
X11034229Y-15129460D01*
X11034229Y-15129460D02*
X11053277Y-15138984D01*
X11053277Y-15138984D02*
X11091372Y-15138984D01*
X11091372Y-15138984D02*
X11110420Y-15129460D01*
X11110420Y-15129460D02*
X11119944Y-15119936D01*
X11119944Y-15119936D02*
X11129468Y-15100888D01*
X11129468Y-15100888D02*
X11129468Y-15053269D01*
X11129468Y-15053269D02*
X11119944Y-15034222D01*
X11119944Y-15034222D02*
X11110420Y-15024698D01*
X11110420Y-15024698D02*
X11091372Y-15015174D01*
X11091372Y-15015174D02*
X11053277Y-15015174D01*
X11053277Y-15015174D02*
X11034229Y-15024698D01*
X11034229Y-15024698D02*
X11024706Y-15034222D01*
X11024706Y-15034222D02*
X11015182Y-15053269D01*
X11253277Y-14938984D02*
X11272325Y-14938984D01*
X11272325Y-14938984D02*
X11291372Y-14948508D01*
X11291372Y-14948508D02*
X11300896Y-14958031D01*
X11300896Y-14958031D02*
X11310420Y-14977079D01*
X11310420Y-14977079D02*
X11319944Y-15015174D01*
X11319944Y-15015174D02*
X11319944Y-15062793D01*
X11319944Y-15062793D02*
X11310420Y-15100888D01*
X11310420Y-15100888D02*
X11300896Y-15119936D01*
X11300896Y-15119936D02*
X11291372Y-15129460D01*
X11291372Y-15129460D02*
X11272325Y-15138984D01*
X11272325Y-15138984D02*
X11253277Y-15138984D01*
X11253277Y-15138984D02*
X11234229Y-15129460D01*
X11234229Y-15129460D02*
X11224706Y-15119936D01*
X11224706Y-15119936D02*
X11215182Y-15100888D01*
X11215182Y-15100888D02*
X11205658Y-15062793D01*
X11205658Y-15062793D02*
X11205658Y-15015174D01*
X11205658Y-15015174D02*
X11215182Y-14977079D01*
X11215182Y-14977079D02*
X11224706Y-14958031D01*
X11224706Y-14958031D02*
X11234229Y-14948508D01*
X11234229Y-14948508D02*
X11253277Y-14938984D01*
X11396134Y-14938984D02*
X11396134Y-14977079D01*
X11472325Y-14938984D02*
X11472325Y-14977079D01*
X11767563Y-15215174D02*
X11758039Y-15205650D01*
X11758039Y-15205650D02*
X11738991Y-15177079D01*
X11738991Y-15177079D02*
X11729468Y-15158031D01*
X11729468Y-15158031D02*
X11719944Y-15129460D01*
X11719944Y-15129460D02*
X11710420Y-15081841D01*
X11710420Y-15081841D02*
X11710420Y-15043746D01*
X11710420Y-15043746D02*
X11719944Y-14996127D01*
X11719944Y-14996127D02*
X11729468Y-14967555D01*
X11729468Y-14967555D02*
X11738991Y-14948508D01*
X11738991Y-14948508D02*
X11758039Y-14919936D01*
X11758039Y-14919936D02*
X11767563Y-14910412D01*
X11929468Y-15005650D02*
X11929468Y-15138984D01*
X11881848Y-14929460D02*
X11834229Y-15072317D01*
X11834229Y-15072317D02*
X11958039Y-15072317D01*
X12186610Y-15138984D02*
X12186610Y-14938984D01*
X12272325Y-15138984D02*
X12272325Y-15034222D01*
X12272325Y-15034222D02*
X12262801Y-15015174D01*
X12262801Y-15015174D02*
X12243753Y-15005650D01*
X12243753Y-15005650D02*
X12215182Y-15005650D01*
X12215182Y-15005650D02*
X12196134Y-15015174D01*
X12196134Y-15015174D02*
X12186610Y-15024698D01*
X12396134Y-15138984D02*
X12377087Y-15129460D01*
X12377087Y-15129460D02*
X12367563Y-15119936D01*
X12367563Y-15119936D02*
X12358039Y-15100888D01*
X12358039Y-15100888D02*
X12358039Y-15043746D01*
X12358039Y-15043746D02*
X12367563Y-15024698D01*
X12367563Y-15024698D02*
X12377087Y-15015174D01*
X12377087Y-15015174D02*
X12396134Y-15005650D01*
X12396134Y-15005650D02*
X12424706Y-15005650D01*
X12424706Y-15005650D02*
X12443753Y-15015174D01*
X12443753Y-15015174D02*
X12453277Y-15024698D01*
X12453277Y-15024698D02*
X12462801Y-15043746D01*
X12462801Y-15043746D02*
X12462801Y-15100888D01*
X12462801Y-15100888D02*
X12453277Y-15119936D01*
X12453277Y-15119936D02*
X12443753Y-15129460D01*
X12443753Y-15129460D02*
X12424706Y-15138984D01*
X12424706Y-15138984D02*
X12396134Y-15138984D01*
X12577087Y-15138984D02*
X12558039Y-15129460D01*
X12558039Y-15129460D02*
X12548515Y-15110412D01*
X12548515Y-15110412D02*
X12548515Y-14938984D01*
X12729468Y-15129460D02*
X12710420Y-15138984D01*
X12710420Y-15138984D02*
X12672325Y-15138984D01*
X12672325Y-15138984D02*
X12653277Y-15129460D01*
X12653277Y-15129460D02*
X12643753Y-15110412D01*
X12643753Y-15110412D02*
X12643753Y-15034222D01*
X12643753Y-15034222D02*
X12653277Y-15015174D01*
X12653277Y-15015174D02*
X12672325Y-15005650D01*
X12672325Y-15005650D02*
X12710420Y-15005650D01*
X12710420Y-15005650D02*
X12729468Y-15015174D01*
X12729468Y-15015174D02*
X12738991Y-15034222D01*
X12738991Y-15034222D02*
X12738991Y-15053269D01*
X12738991Y-15053269D02*
X12643753Y-15072317D01*
X12815182Y-15129460D02*
X12834230Y-15138984D01*
X12834230Y-15138984D02*
X12872325Y-15138984D01*
X12872325Y-15138984D02*
X12891372Y-15129460D01*
X12891372Y-15129460D02*
X12900896Y-15110412D01*
X12900896Y-15110412D02*
X12900896Y-15100888D01*
X12900896Y-15100888D02*
X12891372Y-15081841D01*
X12891372Y-15081841D02*
X12872325Y-15072317D01*
X12872325Y-15072317D02*
X12843753Y-15072317D01*
X12843753Y-15072317D02*
X12824706Y-15062793D01*
X12824706Y-15062793D02*
X12815182Y-15043746D01*
X12815182Y-15043746D02*
X12815182Y-15034222D01*
X12815182Y-15034222D02*
X12824706Y-15015174D01*
X12824706Y-15015174D02*
X12843753Y-15005650D01*
X12843753Y-15005650D02*
X12872325Y-15005650D01*
X12872325Y-15005650D02*
X12891372Y-15015174D01*
X12967563Y-15215174D02*
X12977087Y-15205650D01*
X12977087Y-15205650D02*
X12996134Y-15177079D01*
X12996134Y-15177079D02*
X13005658Y-15158031D01*
X13005658Y-15158031D02*
X13015182Y-15129460D01*
X13015182Y-15129460D02*
X13024706Y-15081841D01*
X13024706Y-15081841D02*
X13024706Y-15043746D01*
X13024706Y-15043746D02*
X13015182Y-14996127D01*
X13015182Y-14996127D02*
X13005658Y-14967555D01*
X13005658Y-14967555D02*
X12996134Y-14948508D01*
X12996134Y-14948508D02*
X12977087Y-14919936D01*
X12977087Y-14919936D02*
X12967563Y-14910412D01*
X13329468Y-15215174D02*
X13319944Y-15205650D01*
X13319944Y-15205650D02*
X13300896Y-15177079D01*
X13300896Y-15177079D02*
X13291372Y-15158031D01*
X13291372Y-15158031D02*
X13281849Y-15129460D01*
X13281849Y-15129460D02*
X13272325Y-15081841D01*
X13272325Y-15081841D02*
X13272325Y-15043746D01*
X13272325Y-15043746D02*
X13281849Y-14996127D01*
X13281849Y-14996127D02*
X13291372Y-14967555D01*
X13291372Y-14967555D02*
X13300896Y-14948508D01*
X13300896Y-14948508D02*
X13319944Y-14919936D01*
X13319944Y-14919936D02*
X13329468Y-14910412D01*
X13405658Y-15005650D02*
X13405658Y-15138984D01*
X13405658Y-15024698D02*
X13415182Y-15015174D01*
X13415182Y-15015174D02*
X13434230Y-15005650D01*
X13434230Y-15005650D02*
X13462801Y-15005650D01*
X13462801Y-15005650D02*
X13481849Y-15015174D01*
X13481849Y-15015174D02*
X13491372Y-15034222D01*
X13491372Y-15034222D02*
X13491372Y-15138984D01*
X13615182Y-15138984D02*
X13596134Y-15129460D01*
X13596134Y-15129460D02*
X13586611Y-15119936D01*
X13586611Y-15119936D02*
X13577087Y-15100888D01*
X13577087Y-15100888D02*
X13577087Y-15043746D01*
X13577087Y-15043746D02*
X13586611Y-15024698D01*
X13586611Y-15024698D02*
X13596134Y-15015174D01*
X13596134Y-15015174D02*
X13615182Y-15005650D01*
X13615182Y-15005650D02*
X13643753Y-15005650D01*
X13643753Y-15005650D02*
X13662801Y-15015174D01*
X13662801Y-15015174D02*
X13672325Y-15024698D01*
X13672325Y-15024698D02*
X13681849Y-15043746D01*
X13681849Y-15043746D02*
X13681849Y-15100888D01*
X13681849Y-15100888D02*
X13672325Y-15119936D01*
X13672325Y-15119936D02*
X13662801Y-15129460D01*
X13662801Y-15129460D02*
X13643753Y-15138984D01*
X13643753Y-15138984D02*
X13615182Y-15138984D01*
X13738992Y-15005650D02*
X13815182Y-15005650D01*
X13767563Y-14938984D02*
X13767563Y-15110412D01*
X13767563Y-15110412D02*
X13777087Y-15129460D01*
X13777087Y-15129460D02*
X13796134Y-15138984D01*
X13796134Y-15138984D02*
X13815182Y-15138984D01*
X14034230Y-15005650D02*
X14034230Y-15205650D01*
X14034230Y-15015174D02*
X14053277Y-15005650D01*
X14053277Y-15005650D02*
X14091373Y-15005650D01*
X14091373Y-15005650D02*
X14110420Y-15015174D01*
X14110420Y-15015174D02*
X14119944Y-15024698D01*
X14119944Y-15024698D02*
X14129468Y-15043746D01*
X14129468Y-15043746D02*
X14129468Y-15100888D01*
X14129468Y-15100888D02*
X14119944Y-15119936D01*
X14119944Y-15119936D02*
X14110420Y-15129460D01*
X14110420Y-15129460D02*
X14091373Y-15138984D01*
X14091373Y-15138984D02*
X14053277Y-15138984D01*
X14053277Y-15138984D02*
X14034230Y-15129460D01*
X14243753Y-15138984D02*
X14224706Y-15129460D01*
X14224706Y-15129460D02*
X14215182Y-15110412D01*
X14215182Y-15110412D02*
X14215182Y-14938984D01*
X14405658Y-15138984D02*
X14405658Y-15034222D01*
X14405658Y-15034222D02*
X14396134Y-15015174D01*
X14396134Y-15015174D02*
X14377087Y-15005650D01*
X14377087Y-15005650D02*
X14338992Y-15005650D01*
X14338992Y-15005650D02*
X14319944Y-15015174D01*
X14405658Y-15129460D02*
X14386611Y-15138984D01*
X14386611Y-15138984D02*
X14338992Y-15138984D01*
X14338992Y-15138984D02*
X14319944Y-15129460D01*
X14319944Y-15129460D02*
X14310420Y-15110412D01*
X14310420Y-15110412D02*
X14310420Y-15091365D01*
X14310420Y-15091365D02*
X14319944Y-15072317D01*
X14319944Y-15072317D02*
X14338992Y-15062793D01*
X14338992Y-15062793D02*
X14386611Y-15062793D01*
X14386611Y-15062793D02*
X14405658Y-15053269D01*
X14472325Y-15005650D02*
X14548515Y-15005650D01*
X14500896Y-14938984D02*
X14500896Y-15110412D01*
X14500896Y-15110412D02*
X14510420Y-15129460D01*
X14510420Y-15129460D02*
X14529468Y-15138984D01*
X14529468Y-15138984D02*
X14548515Y-15138984D01*
X14691373Y-15129460D02*
X14672325Y-15138984D01*
X14672325Y-15138984D02*
X14634230Y-15138984D01*
X14634230Y-15138984D02*
X14615182Y-15129460D01*
X14615182Y-15129460D02*
X14605658Y-15110412D01*
X14605658Y-15110412D02*
X14605658Y-15034222D01*
X14605658Y-15034222D02*
X14615182Y-15015174D01*
X14615182Y-15015174D02*
X14634230Y-15005650D01*
X14634230Y-15005650D02*
X14672325Y-15005650D01*
X14672325Y-15005650D02*
X14691373Y-15015174D01*
X14691373Y-15015174D02*
X14700896Y-15034222D01*
X14700896Y-15034222D02*
X14700896Y-15053269D01*
X14700896Y-15053269D02*
X14605658Y-15072317D01*
X14872325Y-15138984D02*
X14872325Y-14938984D01*
X14872325Y-15129460D02*
X14853277Y-15138984D01*
X14853277Y-15138984D02*
X14815182Y-15138984D01*
X14815182Y-15138984D02*
X14796134Y-15129460D01*
X14796134Y-15129460D02*
X14786611Y-15119936D01*
X14786611Y-15119936D02*
X14777087Y-15100888D01*
X14777087Y-15100888D02*
X14777087Y-15043746D01*
X14777087Y-15043746D02*
X14786611Y-15024698D01*
X14786611Y-15024698D02*
X14796134Y-15015174D01*
X14796134Y-15015174D02*
X14815182Y-15005650D01*
X14815182Y-15005650D02*
X14853277Y-15005650D01*
X14853277Y-15005650D02*
X14872325Y-15015174D01*
X14948515Y-15215174D02*
X14958039Y-15205650D01*
X14958039Y-15205650D02*
X14977087Y-15177079D01*
X14977087Y-15177079D02*
X14986611Y-15158031D01*
X14986611Y-15158031D02*
X14996134Y-15129460D01*
X14996134Y-15129460D02*
X15005658Y-15081841D01*
X15005658Y-15081841D02*
X15005658Y-15043746D01*
X15005658Y-15043746D02*
X14996134Y-14996127D01*
X14996134Y-14996127D02*
X14986611Y-14967555D01*
X14986611Y-14967555D02*
X14977087Y-14948508D01*
X14977087Y-14948508D02*
X14958039Y-14919936D01*
X14958039Y-14919936D02*
X14948515Y-14910412D01*
M02*
