%TF.GenerationSoftware,KiCad,Pcbnew,7.0.7*%
%TF.CreationDate,2024-01-03T18:52:02-05:00*%
%TF.ProjectId,sunlight_pcb,73756e6c-6967-4687-945f-7063622e6b69,rev?*%
%TF.SameCoordinates,Original*%
%TF.FileFunction,Drillmap*%
%TF.FilePolarity,Positive*%
%FSLAX45Y45*%
G04 Gerber Fmt 4.5, Leading zero omitted, Abs format (unit mm)*
G04 Created by KiCad (PCBNEW 7.0.7) date 2024-01-03 18:52:02*
%MOMM*%
%LPD*%
G01*
G04 APERTURE LIST*
%ADD10C,0.150000*%
%ADD11C,0.200000*%
%ADD12C,0.030000*%
%ADD13C,0.100000*%
%ADD14C,0.129540*%
%ADD15C,0.250000*%
G04 APERTURE END LIST*
D10*
X8200000Y-13675000D02*
X8200000Y-4325000D01*
X18275000Y-14400000D02*
X8925000Y-14400000D01*
X19000000Y-4325000D02*
X19000000Y-13675000D01*
X8925000Y-3600000D02*
X18275000Y-3600000D01*
X8200000Y-4325000D02*
X8925000Y-3600000D01*
X8200000Y-13675000D02*
X8925000Y-14400000D01*
X18275000Y-14400000D02*
X19000000Y-13675000D01*
X18275000Y-3600000D02*
X19000000Y-4325000D01*
D11*
D12*
X8635000Y-6035000D02*
X8665000Y-6065000D01*
X8665000Y-6035000D02*
X8635000Y-6065000D01*
X8685000Y-10985000D02*
X8715000Y-11015000D01*
X8715000Y-10985000D02*
X8685000Y-11015000D01*
X8735000Y-9885000D02*
X8765000Y-9915000D01*
X8765000Y-9885000D02*
X8735000Y-9915000D01*
X8785000Y-6885000D02*
X8815000Y-6915000D01*
X8815000Y-6885000D02*
X8785000Y-6915000D01*
X8785000Y-10135000D02*
X8815000Y-10165000D01*
X8815000Y-10135000D02*
X8785000Y-10165000D01*
X8835000Y-7235000D02*
X8865000Y-7265000D01*
X8865000Y-7235000D02*
X8835000Y-7265000D01*
X9135000Y-7185000D02*
X9165000Y-7215000D01*
X9165000Y-7185000D02*
X9135000Y-7215000D01*
X9135000Y-9485000D02*
X9165000Y-9515000D01*
X9165000Y-9485000D02*
X9135000Y-9515000D01*
X9135000Y-11085000D02*
X9165000Y-11115000D01*
X9165000Y-11085000D02*
X9135000Y-11115000D01*
X9235000Y-9585000D02*
X9265000Y-9615000D01*
X9265000Y-9585000D02*
X9235000Y-9615000D01*
X9335000Y-10085000D02*
X9365000Y-10115000D01*
X9365000Y-10085000D02*
X9335000Y-10115000D01*
X9335000Y-10635000D02*
X9365000Y-10665000D01*
X9365000Y-10635000D02*
X9335000Y-10665000D01*
X9485000Y-10585000D02*
X9515000Y-10615000D01*
X9515000Y-10585000D02*
X9485000Y-10615000D01*
X9535000Y-7185000D02*
X9565000Y-7215000D01*
X9565000Y-7185000D02*
X9535000Y-7215000D01*
X9835000Y-10535000D02*
X9865000Y-10565000D01*
X9865000Y-10535000D02*
X9835000Y-10565000D01*
X9885000Y-12785000D02*
X9915000Y-12815000D01*
X9915000Y-12785000D02*
X9885000Y-12815000D01*
X9935000Y-7185000D02*
X9965000Y-7215000D01*
X9965000Y-7185000D02*
X9935000Y-7215000D01*
X10035000Y-10235000D02*
X10065000Y-10265000D01*
X10065000Y-10235000D02*
X10035000Y-10265000D01*
X10035000Y-10335000D02*
X10065000Y-10365000D01*
X10065000Y-10335000D02*
X10035000Y-10365000D01*
X10035000Y-11035000D02*
X10065000Y-11065000D01*
X10065000Y-11035000D02*
X10035000Y-11065000D01*
X10435000Y-11035000D02*
X10465000Y-11065000D01*
X10465000Y-11035000D02*
X10435000Y-11065000D01*
X10535000Y-6035000D02*
X10565000Y-6065000D01*
X10565000Y-6035000D02*
X10535000Y-6065000D01*
X10535000Y-6335000D02*
X10565000Y-6365000D01*
X10565000Y-6335000D02*
X10535000Y-6365000D01*
X10585000Y-5335000D02*
X10615000Y-5365000D01*
X10615000Y-5335000D02*
X10585000Y-5365000D01*
X10635000Y-7085000D02*
X10665000Y-7115000D01*
X10665000Y-7085000D02*
X10635000Y-7115000D01*
X11385000Y-7085000D02*
X11415000Y-7115000D01*
X11415000Y-7085000D02*
X11385000Y-7115000D01*
X13435000Y-10885000D02*
X13465000Y-10915000D01*
X13465000Y-10885000D02*
X13435000Y-10915000D01*
X13485000Y-6485000D02*
X13515000Y-6515000D01*
X13515000Y-6485000D02*
X13485000Y-6515000D01*
X15385000Y-10785000D02*
X15415000Y-10815000D01*
X15415000Y-10785000D02*
X15385000Y-10815000D01*
X15435000Y-6485000D02*
X15465000Y-6515000D01*
X15465000Y-6485000D02*
X15435000Y-6515000D01*
X17285000Y-8585000D02*
X17315000Y-8615000D01*
X17315000Y-8585000D02*
X17285000Y-8615000D01*
X17285000Y-11635000D02*
X17315000Y-11665000D01*
X17315000Y-11635000D02*
X17285000Y-11665000D01*
X17335000Y-7235000D02*
X17365000Y-7265000D01*
X17365000Y-7235000D02*
X17335000Y-7265000D01*
X17435000Y-9485000D02*
X17465000Y-9515000D01*
X17465000Y-9485000D02*
X17435000Y-9515000D01*
X17885000Y-8585000D02*
X17915000Y-8615000D01*
X17915000Y-8585000D02*
X17885000Y-8615000D01*
X17985000Y-7235000D02*
X18015000Y-7265000D01*
X18015000Y-7235000D02*
X17985000Y-7265000D01*
X18035000Y-13985000D02*
X18065000Y-14015000D01*
X18065000Y-13985000D02*
X18035000Y-14015000D01*
X18485000Y-11985000D02*
X18515000Y-12015000D01*
X18515000Y-11985000D02*
X18485000Y-12015000D01*
D13*
X8500000Y-10772500D02*
G75*
G03*
X8500000Y-10772500I-50000J0D01*
G01*
X8500000Y-11026500D02*
G75*
G03*
X8500000Y-11026500I-50000J0D01*
G01*
X9081250Y-9882500D02*
G75*
G03*
X9081250Y-9882500I-50000J0D01*
G01*
D11*
X9081250Y-9982500D02*
X9081250Y-9782500D01*
X9081250Y-9782500D02*
G75*
G03*
X8981250Y-9782500I-50000J0D01*
G01*
X8981250Y-9782500D02*
X8981250Y-9982500D01*
X8981250Y-9982500D02*
G75*
G03*
X9081250Y-9982500I50000J0D01*
G01*
D13*
X9381250Y-10352500D02*
G75*
G03*
X9381250Y-10352500I-50000J0D01*
G01*
D11*
X9431250Y-10302500D02*
X9231250Y-10302500D01*
X9231250Y-10302500D02*
G75*
G03*
X9231250Y-10402500I0J-50000D01*
G01*
X9231250Y-10402500D02*
X9431250Y-10402500D01*
X9431250Y-10402500D02*
G75*
G03*
X9431250Y-10302500I0J50000D01*
G01*
D13*
X9681250Y-9882500D02*
G75*
G03*
X9681250Y-9882500I-50000J0D01*
G01*
D11*
X9681250Y-10007500D02*
X9681250Y-9757500D01*
X9681250Y-9757500D02*
G75*
G03*
X9581250Y-9757500I-50000J0D01*
G01*
X9581250Y-9757500D02*
X9581250Y-10007500D01*
X9581250Y-10007500D02*
G75*
G03*
X9681250Y-10007500I50000J0D01*
G01*
D14*
X11510000Y-4298740D02*
X11510000Y-4428280D01*
X11445230Y-4363510D02*
X11574770Y-4363510D01*
X11510000Y-6728740D02*
X11510000Y-6858280D01*
X11445230Y-6793510D02*
X11574770Y-6793510D01*
X11510000Y-7473740D02*
X11510000Y-7603280D01*
X11445230Y-7538510D02*
X11574770Y-7538510D01*
X11510000Y-8073740D02*
X11510000Y-8203280D01*
X11445230Y-8138510D02*
X11574770Y-8138510D01*
X11510000Y-9698740D02*
X11510000Y-9828280D01*
X11445230Y-9763510D02*
X11574770Y-9763510D01*
X11510000Y-12128740D02*
X11510000Y-12258280D01*
X11445230Y-12193510D02*
X11574770Y-12193510D01*
X11510000Y-12873740D02*
X11510000Y-13003280D01*
X11445230Y-12938510D02*
X11574770Y-12938510D01*
X11510000Y-13473740D02*
X11510000Y-13603280D01*
X11445230Y-13538510D02*
X11574770Y-13538510D01*
X17650000Y-7618740D02*
X17650000Y-7748280D01*
X17585230Y-7683510D02*
X17714770Y-7683510D01*
X17650000Y-8208740D02*
X17650000Y-8338280D01*
X17585230Y-8273510D02*
X17714770Y-8273510D01*
X17650000Y-13018740D02*
X17650000Y-13148280D01*
X17585230Y-13083510D02*
X17714770Y-13083510D01*
X17650000Y-13608740D02*
X17650000Y-13738280D01*
X17585230Y-13673510D02*
X17714770Y-13673510D01*
D15*
X18738389Y-7388389D02*
X18738389Y-7211611D01*
X18561611Y-7211611D01*
X18561611Y-7388389D01*
X18738389Y-7388389D01*
X18738389Y-8388389D02*
X18738389Y-8211611D01*
X18561611Y-8211611D01*
X18561611Y-8388389D01*
X18738389Y-8388389D01*
X18738389Y-9788389D02*
X18738389Y-9611611D01*
X18561611Y-9611611D01*
X18561611Y-9788389D01*
X18738389Y-9788389D01*
X18738389Y-10788389D02*
X18738389Y-10611611D01*
X18561611Y-10611611D01*
X18561611Y-10788389D01*
X18738389Y-10788389D01*
D11*
X8453277Y-14718984D02*
X8453277Y-14518984D01*
X8453277Y-14518984D02*
X8500896Y-14518984D01*
X8500896Y-14518984D02*
X8529467Y-14528508D01*
X8529467Y-14528508D02*
X8548515Y-14547555D01*
X8548515Y-14547555D02*
X8558039Y-14566603D01*
X8558039Y-14566603D02*
X8567563Y-14604698D01*
X8567563Y-14604698D02*
X8567563Y-14633269D01*
X8567563Y-14633269D02*
X8558039Y-14671365D01*
X8558039Y-14671365D02*
X8548515Y-14690412D01*
X8548515Y-14690412D02*
X8529467Y-14709460D01*
X8529467Y-14709460D02*
X8500896Y-14718984D01*
X8500896Y-14718984D02*
X8453277Y-14718984D01*
X8653277Y-14718984D02*
X8653277Y-14585650D01*
X8653277Y-14623746D02*
X8662801Y-14604698D01*
X8662801Y-14604698D02*
X8672324Y-14595174D01*
X8672324Y-14595174D02*
X8691372Y-14585650D01*
X8691372Y-14585650D02*
X8710420Y-14585650D01*
X8777086Y-14718984D02*
X8777086Y-14585650D01*
X8777086Y-14518984D02*
X8767563Y-14528508D01*
X8767563Y-14528508D02*
X8777086Y-14538031D01*
X8777086Y-14538031D02*
X8786610Y-14528508D01*
X8786610Y-14528508D02*
X8777086Y-14518984D01*
X8777086Y-14518984D02*
X8777086Y-14538031D01*
X8900896Y-14718984D02*
X8881848Y-14709460D01*
X8881848Y-14709460D02*
X8872324Y-14690412D01*
X8872324Y-14690412D02*
X8872324Y-14518984D01*
X9005658Y-14718984D02*
X8986610Y-14709460D01*
X8986610Y-14709460D02*
X8977086Y-14690412D01*
X8977086Y-14690412D02*
X8977086Y-14518984D01*
X9234229Y-14718984D02*
X9234229Y-14518984D01*
X9234229Y-14518984D02*
X9300896Y-14661841D01*
X9300896Y-14661841D02*
X9367563Y-14518984D01*
X9367563Y-14518984D02*
X9367563Y-14718984D01*
X9548515Y-14718984D02*
X9548515Y-14614222D01*
X9548515Y-14614222D02*
X9538991Y-14595174D01*
X9538991Y-14595174D02*
X9519944Y-14585650D01*
X9519944Y-14585650D02*
X9481848Y-14585650D01*
X9481848Y-14585650D02*
X9462801Y-14595174D01*
X9548515Y-14709460D02*
X9529467Y-14718984D01*
X9529467Y-14718984D02*
X9481848Y-14718984D01*
X9481848Y-14718984D02*
X9462801Y-14709460D01*
X9462801Y-14709460D02*
X9453277Y-14690412D01*
X9453277Y-14690412D02*
X9453277Y-14671365D01*
X9453277Y-14671365D02*
X9462801Y-14652317D01*
X9462801Y-14652317D02*
X9481848Y-14642793D01*
X9481848Y-14642793D02*
X9529467Y-14642793D01*
X9529467Y-14642793D02*
X9548515Y-14633269D01*
X9643753Y-14585650D02*
X9643753Y-14785650D01*
X9643753Y-14595174D02*
X9662801Y-14585650D01*
X9662801Y-14585650D02*
X9700896Y-14585650D01*
X9700896Y-14585650D02*
X9719944Y-14595174D01*
X9719944Y-14595174D02*
X9729467Y-14604698D01*
X9729467Y-14604698D02*
X9738991Y-14623746D01*
X9738991Y-14623746D02*
X9738991Y-14680888D01*
X9738991Y-14680888D02*
X9729467Y-14699936D01*
X9729467Y-14699936D02*
X9719944Y-14709460D01*
X9719944Y-14709460D02*
X9700896Y-14718984D01*
X9700896Y-14718984D02*
X9662801Y-14718984D01*
X9662801Y-14718984D02*
X9643753Y-14709460D01*
X9824705Y-14699936D02*
X9834229Y-14709460D01*
X9834229Y-14709460D02*
X9824705Y-14718984D01*
X9824705Y-14718984D02*
X9815182Y-14709460D01*
X9815182Y-14709460D02*
X9824705Y-14699936D01*
X9824705Y-14699936D02*
X9824705Y-14718984D01*
X9824705Y-14595174D02*
X9834229Y-14604698D01*
X9834229Y-14604698D02*
X9824705Y-14614222D01*
X9824705Y-14614222D02*
X9815182Y-14604698D01*
X9815182Y-14604698D02*
X9824705Y-14595174D01*
X9824705Y-14595174D02*
X9824705Y-14614222D01*
D12*
X8162500Y-15032500D02*
X8192500Y-15062500D01*
X8192500Y-15032500D02*
X8162500Y-15062500D01*
D11*
X8491372Y-14938984D02*
X8510420Y-14938984D01*
X8510420Y-14938984D02*
X8529467Y-14948508D01*
X8529467Y-14948508D02*
X8538991Y-14958031D01*
X8538991Y-14958031D02*
X8548515Y-14977079D01*
X8548515Y-14977079D02*
X8558039Y-15015174D01*
X8558039Y-15015174D02*
X8558039Y-15062793D01*
X8558039Y-15062793D02*
X8548515Y-15100888D01*
X8548515Y-15100888D02*
X8538991Y-15119936D01*
X8538991Y-15119936D02*
X8529467Y-15129460D01*
X8529467Y-15129460D02*
X8510420Y-15138984D01*
X8510420Y-15138984D02*
X8491372Y-15138984D01*
X8491372Y-15138984D02*
X8472324Y-15129460D01*
X8472324Y-15129460D02*
X8462801Y-15119936D01*
X8462801Y-15119936D02*
X8453277Y-15100888D01*
X8453277Y-15100888D02*
X8443753Y-15062793D01*
X8443753Y-15062793D02*
X8443753Y-15015174D01*
X8443753Y-15015174D02*
X8453277Y-14977079D01*
X8453277Y-14977079D02*
X8462801Y-14958031D01*
X8462801Y-14958031D02*
X8472324Y-14948508D01*
X8472324Y-14948508D02*
X8491372Y-14938984D01*
X8643753Y-15119936D02*
X8653277Y-15129460D01*
X8653277Y-15129460D02*
X8643753Y-15138984D01*
X8643753Y-15138984D02*
X8634229Y-15129460D01*
X8634229Y-15129460D02*
X8643753Y-15119936D01*
X8643753Y-15119936D02*
X8643753Y-15138984D01*
X8719944Y-14938984D02*
X8843753Y-14938984D01*
X8843753Y-14938984D02*
X8777086Y-15015174D01*
X8777086Y-15015174D02*
X8805658Y-15015174D01*
X8805658Y-15015174D02*
X8824705Y-15024698D01*
X8824705Y-15024698D02*
X8834229Y-15034222D01*
X8834229Y-15034222D02*
X8843753Y-15053269D01*
X8843753Y-15053269D02*
X8843753Y-15100888D01*
X8843753Y-15100888D02*
X8834229Y-15119936D01*
X8834229Y-15119936D02*
X8824705Y-15129460D01*
X8824705Y-15129460D02*
X8805658Y-15138984D01*
X8805658Y-15138984D02*
X8748515Y-15138984D01*
X8748515Y-15138984D02*
X8729467Y-15129460D01*
X8729467Y-15129460D02*
X8719944Y-15119936D01*
X8967563Y-14938984D02*
X8986610Y-14938984D01*
X8986610Y-14938984D02*
X9005658Y-14948508D01*
X9005658Y-14948508D02*
X9015182Y-14958031D01*
X9015182Y-14958031D02*
X9024705Y-14977079D01*
X9024705Y-14977079D02*
X9034229Y-15015174D01*
X9034229Y-15015174D02*
X9034229Y-15062793D01*
X9034229Y-15062793D02*
X9024705Y-15100888D01*
X9024705Y-15100888D02*
X9015182Y-15119936D01*
X9015182Y-15119936D02*
X9005658Y-15129460D01*
X9005658Y-15129460D02*
X8986610Y-15138984D01*
X8986610Y-15138984D02*
X8967563Y-15138984D01*
X8967563Y-15138984D02*
X8948515Y-15129460D01*
X8948515Y-15129460D02*
X8938991Y-15119936D01*
X8938991Y-15119936D02*
X8929467Y-15100888D01*
X8929467Y-15100888D02*
X8919944Y-15062793D01*
X8919944Y-15062793D02*
X8919944Y-15015174D01*
X8919944Y-15015174D02*
X8929467Y-14977079D01*
X8929467Y-14977079D02*
X8938991Y-14958031D01*
X8938991Y-14958031D02*
X8948515Y-14948508D01*
X8948515Y-14948508D02*
X8967563Y-14938984D01*
X9158039Y-14938984D02*
X9177086Y-14938984D01*
X9177086Y-14938984D02*
X9196134Y-14948508D01*
X9196134Y-14948508D02*
X9205658Y-14958031D01*
X9205658Y-14958031D02*
X9215182Y-14977079D01*
X9215182Y-14977079D02*
X9224705Y-15015174D01*
X9224705Y-15015174D02*
X9224705Y-15062793D01*
X9224705Y-15062793D02*
X9215182Y-15100888D01*
X9215182Y-15100888D02*
X9205658Y-15119936D01*
X9205658Y-15119936D02*
X9196134Y-15129460D01*
X9196134Y-15129460D02*
X9177086Y-15138984D01*
X9177086Y-15138984D02*
X9158039Y-15138984D01*
X9158039Y-15138984D02*
X9138991Y-15129460D01*
X9138991Y-15129460D02*
X9129467Y-15119936D01*
X9129467Y-15119936D02*
X9119944Y-15100888D01*
X9119944Y-15100888D02*
X9110420Y-15062793D01*
X9110420Y-15062793D02*
X9110420Y-15015174D01*
X9110420Y-15015174D02*
X9119944Y-14977079D01*
X9119944Y-14977079D02*
X9129467Y-14958031D01*
X9129467Y-14958031D02*
X9138991Y-14948508D01*
X9138991Y-14948508D02*
X9158039Y-14938984D01*
X9310420Y-15138984D02*
X9310420Y-15005650D01*
X9310420Y-15024698D02*
X9319944Y-15015174D01*
X9319944Y-15015174D02*
X9338991Y-15005650D01*
X9338991Y-15005650D02*
X9367563Y-15005650D01*
X9367563Y-15005650D02*
X9386610Y-15015174D01*
X9386610Y-15015174D02*
X9396134Y-15034222D01*
X9396134Y-15034222D02*
X9396134Y-15138984D01*
X9396134Y-15034222D02*
X9405658Y-15015174D01*
X9405658Y-15015174D02*
X9424705Y-15005650D01*
X9424705Y-15005650D02*
X9453277Y-15005650D01*
X9453277Y-15005650D02*
X9472325Y-15015174D01*
X9472325Y-15015174D02*
X9481848Y-15034222D01*
X9481848Y-15034222D02*
X9481848Y-15138984D01*
X9577086Y-15138984D02*
X9577086Y-15005650D01*
X9577086Y-15024698D02*
X9586610Y-15015174D01*
X9586610Y-15015174D02*
X9605658Y-15005650D01*
X9605658Y-15005650D02*
X9634229Y-15005650D01*
X9634229Y-15005650D02*
X9653277Y-15015174D01*
X9653277Y-15015174D02*
X9662801Y-15034222D01*
X9662801Y-15034222D02*
X9662801Y-15138984D01*
X9662801Y-15034222D02*
X9672325Y-15015174D01*
X9672325Y-15015174D02*
X9691372Y-15005650D01*
X9691372Y-15005650D02*
X9719944Y-15005650D01*
X9719944Y-15005650D02*
X9738991Y-15015174D01*
X9738991Y-15015174D02*
X9748515Y-15034222D01*
X9748515Y-15034222D02*
X9748515Y-15138984D01*
X10138991Y-14929460D02*
X9967563Y-15186603D01*
X10396134Y-14938984D02*
X10415182Y-14938984D01*
X10415182Y-14938984D02*
X10434229Y-14948508D01*
X10434229Y-14948508D02*
X10443753Y-14958031D01*
X10443753Y-14958031D02*
X10453277Y-14977079D01*
X10453277Y-14977079D02*
X10462801Y-15015174D01*
X10462801Y-15015174D02*
X10462801Y-15062793D01*
X10462801Y-15062793D02*
X10453277Y-15100888D01*
X10453277Y-15100888D02*
X10443753Y-15119936D01*
X10443753Y-15119936D02*
X10434229Y-15129460D01*
X10434229Y-15129460D02*
X10415182Y-15138984D01*
X10415182Y-15138984D02*
X10396134Y-15138984D01*
X10396134Y-15138984D02*
X10377087Y-15129460D01*
X10377087Y-15129460D02*
X10367563Y-15119936D01*
X10367563Y-15119936D02*
X10358039Y-15100888D01*
X10358039Y-15100888D02*
X10348515Y-15062793D01*
X10348515Y-15062793D02*
X10348515Y-15015174D01*
X10348515Y-15015174D02*
X10358039Y-14977079D01*
X10358039Y-14977079D02*
X10367563Y-14958031D01*
X10367563Y-14958031D02*
X10377087Y-14948508D01*
X10377087Y-14948508D02*
X10396134Y-14938984D01*
X10548515Y-15119936D02*
X10558039Y-15129460D01*
X10558039Y-15129460D02*
X10548515Y-15138984D01*
X10548515Y-15138984D02*
X10538991Y-15129460D01*
X10538991Y-15129460D02*
X10548515Y-15119936D01*
X10548515Y-15119936D02*
X10548515Y-15138984D01*
X10681848Y-14938984D02*
X10700896Y-14938984D01*
X10700896Y-14938984D02*
X10719944Y-14948508D01*
X10719944Y-14948508D02*
X10729468Y-14958031D01*
X10729468Y-14958031D02*
X10738991Y-14977079D01*
X10738991Y-14977079D02*
X10748515Y-15015174D01*
X10748515Y-15015174D02*
X10748515Y-15062793D01*
X10748515Y-15062793D02*
X10738991Y-15100888D01*
X10738991Y-15100888D02*
X10729468Y-15119936D01*
X10729468Y-15119936D02*
X10719944Y-15129460D01*
X10719944Y-15129460D02*
X10700896Y-15138984D01*
X10700896Y-15138984D02*
X10681848Y-15138984D01*
X10681848Y-15138984D02*
X10662801Y-15129460D01*
X10662801Y-15129460D02*
X10653277Y-15119936D01*
X10653277Y-15119936D02*
X10643753Y-15100888D01*
X10643753Y-15100888D02*
X10634229Y-15062793D01*
X10634229Y-15062793D02*
X10634229Y-15015174D01*
X10634229Y-15015174D02*
X10643753Y-14977079D01*
X10643753Y-14977079D02*
X10653277Y-14958031D01*
X10653277Y-14958031D02*
X10662801Y-14948508D01*
X10662801Y-14948508D02*
X10681848Y-14938984D01*
X10938991Y-15138984D02*
X10824706Y-15138984D01*
X10881848Y-15138984D02*
X10881848Y-14938984D01*
X10881848Y-14938984D02*
X10862801Y-14967555D01*
X10862801Y-14967555D02*
X10843753Y-14986603D01*
X10843753Y-14986603D02*
X10824706Y-14996127D01*
X11129468Y-15138984D02*
X11015182Y-15138984D01*
X11072325Y-15138984D02*
X11072325Y-14938984D01*
X11072325Y-14938984D02*
X11053277Y-14967555D01*
X11053277Y-14967555D02*
X11034229Y-14986603D01*
X11034229Y-14986603D02*
X11015182Y-14996127D01*
X11243753Y-15024698D02*
X11224706Y-15015174D01*
X11224706Y-15015174D02*
X11215182Y-15005650D01*
X11215182Y-15005650D02*
X11205658Y-14986603D01*
X11205658Y-14986603D02*
X11205658Y-14977079D01*
X11205658Y-14977079D02*
X11215182Y-14958031D01*
X11215182Y-14958031D02*
X11224706Y-14948508D01*
X11224706Y-14948508D02*
X11243753Y-14938984D01*
X11243753Y-14938984D02*
X11281848Y-14938984D01*
X11281848Y-14938984D02*
X11300896Y-14948508D01*
X11300896Y-14948508D02*
X11310420Y-14958031D01*
X11310420Y-14958031D02*
X11319944Y-14977079D01*
X11319944Y-14977079D02*
X11319944Y-14986603D01*
X11319944Y-14986603D02*
X11310420Y-15005650D01*
X11310420Y-15005650D02*
X11300896Y-15015174D01*
X11300896Y-15015174D02*
X11281848Y-15024698D01*
X11281848Y-15024698D02*
X11243753Y-15024698D01*
X11243753Y-15024698D02*
X11224706Y-15034222D01*
X11224706Y-15034222D02*
X11215182Y-15043746D01*
X11215182Y-15043746D02*
X11205658Y-15062793D01*
X11205658Y-15062793D02*
X11205658Y-15100888D01*
X11205658Y-15100888D02*
X11215182Y-15119936D01*
X11215182Y-15119936D02*
X11224706Y-15129460D01*
X11224706Y-15129460D02*
X11243753Y-15138984D01*
X11243753Y-15138984D02*
X11281848Y-15138984D01*
X11281848Y-15138984D02*
X11300896Y-15129460D01*
X11300896Y-15129460D02*
X11310420Y-15119936D01*
X11310420Y-15119936D02*
X11319944Y-15100888D01*
X11319944Y-15100888D02*
X11319944Y-15062793D01*
X11319944Y-15062793D02*
X11310420Y-15043746D01*
X11310420Y-15043746D02*
X11300896Y-15034222D01*
X11300896Y-15034222D02*
X11281848Y-15024698D01*
X11396134Y-14938984D02*
X11396134Y-14977079D01*
X11472325Y-14938984D02*
X11472325Y-14977079D01*
X11767563Y-15215174D02*
X11758039Y-15205650D01*
X11758039Y-15205650D02*
X11738991Y-15177079D01*
X11738991Y-15177079D02*
X11729468Y-15158031D01*
X11729468Y-15158031D02*
X11719944Y-15129460D01*
X11719944Y-15129460D02*
X11710420Y-15081841D01*
X11710420Y-15081841D02*
X11710420Y-15043746D01*
X11710420Y-15043746D02*
X11719944Y-14996127D01*
X11719944Y-14996127D02*
X11729468Y-14967555D01*
X11729468Y-14967555D02*
X11738991Y-14948508D01*
X11738991Y-14948508D02*
X11758039Y-14919936D01*
X11758039Y-14919936D02*
X11767563Y-14910412D01*
X11824706Y-14938984D02*
X11948515Y-14938984D01*
X11948515Y-14938984D02*
X11881848Y-15015174D01*
X11881848Y-15015174D02*
X11910420Y-15015174D01*
X11910420Y-15015174D02*
X11929468Y-15024698D01*
X11929468Y-15024698D02*
X11938991Y-15034222D01*
X11938991Y-15034222D02*
X11948515Y-15053269D01*
X11948515Y-15053269D02*
X11948515Y-15100888D01*
X11948515Y-15100888D02*
X11938991Y-15119936D01*
X11938991Y-15119936D02*
X11929468Y-15129460D01*
X11929468Y-15129460D02*
X11910420Y-15138984D01*
X11910420Y-15138984D02*
X11853277Y-15138984D01*
X11853277Y-15138984D02*
X11834229Y-15129460D01*
X11834229Y-15129460D02*
X11824706Y-15119936D01*
X12062801Y-15024698D02*
X12043753Y-15015174D01*
X12043753Y-15015174D02*
X12034229Y-15005650D01*
X12034229Y-15005650D02*
X12024706Y-14986603D01*
X12024706Y-14986603D02*
X12024706Y-14977079D01*
X12024706Y-14977079D02*
X12034229Y-14958031D01*
X12034229Y-14958031D02*
X12043753Y-14948508D01*
X12043753Y-14948508D02*
X12062801Y-14938984D01*
X12062801Y-14938984D02*
X12100896Y-14938984D01*
X12100896Y-14938984D02*
X12119944Y-14948508D01*
X12119944Y-14948508D02*
X12129468Y-14958031D01*
X12129468Y-14958031D02*
X12138991Y-14977079D01*
X12138991Y-14977079D02*
X12138991Y-14986603D01*
X12138991Y-14986603D02*
X12129468Y-15005650D01*
X12129468Y-15005650D02*
X12119944Y-15015174D01*
X12119944Y-15015174D02*
X12100896Y-15024698D01*
X12100896Y-15024698D02*
X12062801Y-15024698D01*
X12062801Y-15024698D02*
X12043753Y-15034222D01*
X12043753Y-15034222D02*
X12034229Y-15043746D01*
X12034229Y-15043746D02*
X12024706Y-15062793D01*
X12024706Y-15062793D02*
X12024706Y-15100888D01*
X12024706Y-15100888D02*
X12034229Y-15119936D01*
X12034229Y-15119936D02*
X12043753Y-15129460D01*
X12043753Y-15129460D02*
X12062801Y-15138984D01*
X12062801Y-15138984D02*
X12100896Y-15138984D01*
X12100896Y-15138984D02*
X12119944Y-15129460D01*
X12119944Y-15129460D02*
X12129468Y-15119936D01*
X12129468Y-15119936D02*
X12138991Y-15100888D01*
X12138991Y-15100888D02*
X12138991Y-15062793D01*
X12138991Y-15062793D02*
X12129468Y-15043746D01*
X12129468Y-15043746D02*
X12119944Y-15034222D01*
X12119944Y-15034222D02*
X12100896Y-15024698D01*
X12377087Y-15138984D02*
X12377087Y-14938984D01*
X12462801Y-15138984D02*
X12462801Y-15034222D01*
X12462801Y-15034222D02*
X12453277Y-15015174D01*
X12453277Y-15015174D02*
X12434230Y-15005650D01*
X12434230Y-15005650D02*
X12405658Y-15005650D01*
X12405658Y-15005650D02*
X12386610Y-15015174D01*
X12386610Y-15015174D02*
X12377087Y-15024698D01*
X12586610Y-15138984D02*
X12567563Y-15129460D01*
X12567563Y-15129460D02*
X12558039Y-15119936D01*
X12558039Y-15119936D02*
X12548515Y-15100888D01*
X12548515Y-15100888D02*
X12548515Y-15043746D01*
X12548515Y-15043746D02*
X12558039Y-15024698D01*
X12558039Y-15024698D02*
X12567563Y-15015174D01*
X12567563Y-15015174D02*
X12586610Y-15005650D01*
X12586610Y-15005650D02*
X12615182Y-15005650D01*
X12615182Y-15005650D02*
X12634230Y-15015174D01*
X12634230Y-15015174D02*
X12643753Y-15024698D01*
X12643753Y-15024698D02*
X12653277Y-15043746D01*
X12653277Y-15043746D02*
X12653277Y-15100888D01*
X12653277Y-15100888D02*
X12643753Y-15119936D01*
X12643753Y-15119936D02*
X12634230Y-15129460D01*
X12634230Y-15129460D02*
X12615182Y-15138984D01*
X12615182Y-15138984D02*
X12586610Y-15138984D01*
X12767563Y-15138984D02*
X12748515Y-15129460D01*
X12748515Y-15129460D02*
X12738991Y-15110412D01*
X12738991Y-15110412D02*
X12738991Y-14938984D01*
X12919944Y-15129460D02*
X12900896Y-15138984D01*
X12900896Y-15138984D02*
X12862801Y-15138984D01*
X12862801Y-15138984D02*
X12843753Y-15129460D01*
X12843753Y-15129460D02*
X12834230Y-15110412D01*
X12834230Y-15110412D02*
X12834230Y-15034222D01*
X12834230Y-15034222D02*
X12843753Y-15015174D01*
X12843753Y-15015174D02*
X12862801Y-15005650D01*
X12862801Y-15005650D02*
X12900896Y-15005650D01*
X12900896Y-15005650D02*
X12919944Y-15015174D01*
X12919944Y-15015174D02*
X12929468Y-15034222D01*
X12929468Y-15034222D02*
X12929468Y-15053269D01*
X12929468Y-15053269D02*
X12834230Y-15072317D01*
X13005658Y-15129460D02*
X13024706Y-15138984D01*
X13024706Y-15138984D02*
X13062801Y-15138984D01*
X13062801Y-15138984D02*
X13081849Y-15129460D01*
X13081849Y-15129460D02*
X13091372Y-15110412D01*
X13091372Y-15110412D02*
X13091372Y-15100888D01*
X13091372Y-15100888D02*
X13081849Y-15081841D01*
X13081849Y-15081841D02*
X13062801Y-15072317D01*
X13062801Y-15072317D02*
X13034230Y-15072317D01*
X13034230Y-15072317D02*
X13015182Y-15062793D01*
X13015182Y-15062793D02*
X13005658Y-15043746D01*
X13005658Y-15043746D02*
X13005658Y-15034222D01*
X13005658Y-15034222D02*
X13015182Y-15015174D01*
X13015182Y-15015174D02*
X13034230Y-15005650D01*
X13034230Y-15005650D02*
X13062801Y-15005650D01*
X13062801Y-15005650D02*
X13081849Y-15015174D01*
X13158039Y-15215174D02*
X13167563Y-15205650D01*
X13167563Y-15205650D02*
X13186611Y-15177079D01*
X13186611Y-15177079D02*
X13196134Y-15158031D01*
X13196134Y-15158031D02*
X13205658Y-15129460D01*
X13205658Y-15129460D02*
X13215182Y-15081841D01*
X13215182Y-15081841D02*
X13215182Y-15043746D01*
X13215182Y-15043746D02*
X13205658Y-14996127D01*
X13205658Y-14996127D02*
X13196134Y-14967555D01*
X13196134Y-14967555D02*
X13186611Y-14948508D01*
X13186611Y-14948508D02*
X13167563Y-14919936D01*
X13167563Y-14919936D02*
X13158039Y-14910412D01*
D13*
X8192500Y-15311500D02*
G75*
G03*
X8192500Y-15311500I-50000J0D01*
G01*
D11*
X8558039Y-15402984D02*
X8443753Y-15402984D01*
X8500896Y-15402984D02*
X8500896Y-15202984D01*
X8500896Y-15202984D02*
X8481848Y-15231555D01*
X8481848Y-15231555D02*
X8462801Y-15250603D01*
X8462801Y-15250603D02*
X8443753Y-15260127D01*
X8643753Y-15383936D02*
X8653277Y-15393460D01*
X8653277Y-15393460D02*
X8643753Y-15402984D01*
X8643753Y-15402984D02*
X8634229Y-15393460D01*
X8634229Y-15393460D02*
X8643753Y-15383936D01*
X8643753Y-15383936D02*
X8643753Y-15402984D01*
X8777086Y-15202984D02*
X8796134Y-15202984D01*
X8796134Y-15202984D02*
X8815182Y-15212508D01*
X8815182Y-15212508D02*
X8824705Y-15222031D01*
X8824705Y-15222031D02*
X8834229Y-15241079D01*
X8834229Y-15241079D02*
X8843753Y-15279174D01*
X8843753Y-15279174D02*
X8843753Y-15326793D01*
X8843753Y-15326793D02*
X8834229Y-15364888D01*
X8834229Y-15364888D02*
X8824705Y-15383936D01*
X8824705Y-15383936D02*
X8815182Y-15393460D01*
X8815182Y-15393460D02*
X8796134Y-15402984D01*
X8796134Y-15402984D02*
X8777086Y-15402984D01*
X8777086Y-15402984D02*
X8758039Y-15393460D01*
X8758039Y-15393460D02*
X8748515Y-15383936D01*
X8748515Y-15383936D02*
X8738991Y-15364888D01*
X8738991Y-15364888D02*
X8729467Y-15326793D01*
X8729467Y-15326793D02*
X8729467Y-15279174D01*
X8729467Y-15279174D02*
X8738991Y-15241079D01*
X8738991Y-15241079D02*
X8748515Y-15222031D01*
X8748515Y-15222031D02*
X8758039Y-15212508D01*
X8758039Y-15212508D02*
X8777086Y-15202984D01*
X8967563Y-15202984D02*
X8986610Y-15202984D01*
X8986610Y-15202984D02*
X9005658Y-15212508D01*
X9005658Y-15212508D02*
X9015182Y-15222031D01*
X9015182Y-15222031D02*
X9024705Y-15241079D01*
X9024705Y-15241079D02*
X9034229Y-15279174D01*
X9034229Y-15279174D02*
X9034229Y-15326793D01*
X9034229Y-15326793D02*
X9024705Y-15364888D01*
X9024705Y-15364888D02*
X9015182Y-15383936D01*
X9015182Y-15383936D02*
X9005658Y-15393460D01*
X9005658Y-15393460D02*
X8986610Y-15402984D01*
X8986610Y-15402984D02*
X8967563Y-15402984D01*
X8967563Y-15402984D02*
X8948515Y-15393460D01*
X8948515Y-15393460D02*
X8938991Y-15383936D01*
X8938991Y-15383936D02*
X8929467Y-15364888D01*
X8929467Y-15364888D02*
X8919944Y-15326793D01*
X8919944Y-15326793D02*
X8919944Y-15279174D01*
X8919944Y-15279174D02*
X8929467Y-15241079D01*
X8929467Y-15241079D02*
X8938991Y-15222031D01*
X8938991Y-15222031D02*
X8948515Y-15212508D01*
X8948515Y-15212508D02*
X8967563Y-15202984D01*
X9158039Y-15202984D02*
X9177086Y-15202984D01*
X9177086Y-15202984D02*
X9196134Y-15212508D01*
X9196134Y-15212508D02*
X9205658Y-15222031D01*
X9205658Y-15222031D02*
X9215182Y-15241079D01*
X9215182Y-15241079D02*
X9224705Y-15279174D01*
X9224705Y-15279174D02*
X9224705Y-15326793D01*
X9224705Y-15326793D02*
X9215182Y-15364888D01*
X9215182Y-15364888D02*
X9205658Y-15383936D01*
X9205658Y-15383936D02*
X9196134Y-15393460D01*
X9196134Y-15393460D02*
X9177086Y-15402984D01*
X9177086Y-15402984D02*
X9158039Y-15402984D01*
X9158039Y-15402984D02*
X9138991Y-15393460D01*
X9138991Y-15393460D02*
X9129467Y-15383936D01*
X9129467Y-15383936D02*
X9119944Y-15364888D01*
X9119944Y-15364888D02*
X9110420Y-15326793D01*
X9110420Y-15326793D02*
X9110420Y-15279174D01*
X9110420Y-15279174D02*
X9119944Y-15241079D01*
X9119944Y-15241079D02*
X9129467Y-15222031D01*
X9129467Y-15222031D02*
X9138991Y-15212508D01*
X9138991Y-15212508D02*
X9158039Y-15202984D01*
X9310420Y-15402984D02*
X9310420Y-15269650D01*
X9310420Y-15288698D02*
X9319944Y-15279174D01*
X9319944Y-15279174D02*
X9338991Y-15269650D01*
X9338991Y-15269650D02*
X9367563Y-15269650D01*
X9367563Y-15269650D02*
X9386610Y-15279174D01*
X9386610Y-15279174D02*
X9396134Y-15298222D01*
X9396134Y-15298222D02*
X9396134Y-15402984D01*
X9396134Y-15298222D02*
X9405658Y-15279174D01*
X9405658Y-15279174D02*
X9424705Y-15269650D01*
X9424705Y-15269650D02*
X9453277Y-15269650D01*
X9453277Y-15269650D02*
X9472325Y-15279174D01*
X9472325Y-15279174D02*
X9481848Y-15298222D01*
X9481848Y-15298222D02*
X9481848Y-15402984D01*
X9577086Y-15402984D02*
X9577086Y-15269650D01*
X9577086Y-15288698D02*
X9586610Y-15279174D01*
X9586610Y-15279174D02*
X9605658Y-15269650D01*
X9605658Y-15269650D02*
X9634229Y-15269650D01*
X9634229Y-15269650D02*
X9653277Y-15279174D01*
X9653277Y-15279174D02*
X9662801Y-15298222D01*
X9662801Y-15298222D02*
X9662801Y-15402984D01*
X9662801Y-15298222D02*
X9672325Y-15279174D01*
X9672325Y-15279174D02*
X9691372Y-15269650D01*
X9691372Y-15269650D02*
X9719944Y-15269650D01*
X9719944Y-15269650D02*
X9738991Y-15279174D01*
X9738991Y-15279174D02*
X9748515Y-15298222D01*
X9748515Y-15298222D02*
X9748515Y-15402984D01*
X10138991Y-15193460D02*
X9967563Y-15450603D01*
X10396134Y-15202984D02*
X10415182Y-15202984D01*
X10415182Y-15202984D02*
X10434229Y-15212508D01*
X10434229Y-15212508D02*
X10443753Y-15222031D01*
X10443753Y-15222031D02*
X10453277Y-15241079D01*
X10453277Y-15241079D02*
X10462801Y-15279174D01*
X10462801Y-15279174D02*
X10462801Y-15326793D01*
X10462801Y-15326793D02*
X10453277Y-15364888D01*
X10453277Y-15364888D02*
X10443753Y-15383936D01*
X10443753Y-15383936D02*
X10434229Y-15393460D01*
X10434229Y-15393460D02*
X10415182Y-15402984D01*
X10415182Y-15402984D02*
X10396134Y-15402984D01*
X10396134Y-15402984D02*
X10377087Y-15393460D01*
X10377087Y-15393460D02*
X10367563Y-15383936D01*
X10367563Y-15383936D02*
X10358039Y-15364888D01*
X10358039Y-15364888D02*
X10348515Y-15326793D01*
X10348515Y-15326793D02*
X10348515Y-15279174D01*
X10348515Y-15279174D02*
X10358039Y-15241079D01*
X10358039Y-15241079D02*
X10367563Y-15222031D01*
X10367563Y-15222031D02*
X10377087Y-15212508D01*
X10377087Y-15212508D02*
X10396134Y-15202984D01*
X10548515Y-15383936D02*
X10558039Y-15393460D01*
X10558039Y-15393460D02*
X10548515Y-15402984D01*
X10548515Y-15402984D02*
X10538991Y-15393460D01*
X10538991Y-15393460D02*
X10548515Y-15383936D01*
X10548515Y-15383936D02*
X10548515Y-15402984D01*
X10681848Y-15202984D02*
X10700896Y-15202984D01*
X10700896Y-15202984D02*
X10719944Y-15212508D01*
X10719944Y-15212508D02*
X10729468Y-15222031D01*
X10729468Y-15222031D02*
X10738991Y-15241079D01*
X10738991Y-15241079D02*
X10748515Y-15279174D01*
X10748515Y-15279174D02*
X10748515Y-15326793D01*
X10748515Y-15326793D02*
X10738991Y-15364888D01*
X10738991Y-15364888D02*
X10729468Y-15383936D01*
X10729468Y-15383936D02*
X10719944Y-15393460D01*
X10719944Y-15393460D02*
X10700896Y-15402984D01*
X10700896Y-15402984D02*
X10681848Y-15402984D01*
X10681848Y-15402984D02*
X10662801Y-15393460D01*
X10662801Y-15393460D02*
X10653277Y-15383936D01*
X10653277Y-15383936D02*
X10643753Y-15364888D01*
X10643753Y-15364888D02*
X10634229Y-15326793D01*
X10634229Y-15326793D02*
X10634229Y-15279174D01*
X10634229Y-15279174D02*
X10643753Y-15241079D01*
X10643753Y-15241079D02*
X10653277Y-15222031D01*
X10653277Y-15222031D02*
X10662801Y-15212508D01*
X10662801Y-15212508D02*
X10681848Y-15202984D01*
X10815182Y-15202984D02*
X10938991Y-15202984D01*
X10938991Y-15202984D02*
X10872325Y-15279174D01*
X10872325Y-15279174D02*
X10900896Y-15279174D01*
X10900896Y-15279174D02*
X10919944Y-15288698D01*
X10919944Y-15288698D02*
X10929468Y-15298222D01*
X10929468Y-15298222D02*
X10938991Y-15317269D01*
X10938991Y-15317269D02*
X10938991Y-15364888D01*
X10938991Y-15364888D02*
X10929468Y-15383936D01*
X10929468Y-15383936D02*
X10919944Y-15393460D01*
X10919944Y-15393460D02*
X10900896Y-15402984D01*
X10900896Y-15402984D02*
X10843753Y-15402984D01*
X10843753Y-15402984D02*
X10824706Y-15393460D01*
X10824706Y-15393460D02*
X10815182Y-15383936D01*
X11034229Y-15402984D02*
X11072325Y-15402984D01*
X11072325Y-15402984D02*
X11091372Y-15393460D01*
X11091372Y-15393460D02*
X11100896Y-15383936D01*
X11100896Y-15383936D02*
X11119944Y-15355365D01*
X11119944Y-15355365D02*
X11129468Y-15317269D01*
X11129468Y-15317269D02*
X11129468Y-15241079D01*
X11129468Y-15241079D02*
X11119944Y-15222031D01*
X11119944Y-15222031D02*
X11110420Y-15212508D01*
X11110420Y-15212508D02*
X11091372Y-15202984D01*
X11091372Y-15202984D02*
X11053277Y-15202984D01*
X11053277Y-15202984D02*
X11034229Y-15212508D01*
X11034229Y-15212508D02*
X11024706Y-15222031D01*
X11024706Y-15222031D02*
X11015182Y-15241079D01*
X11015182Y-15241079D02*
X11015182Y-15288698D01*
X11015182Y-15288698D02*
X11024706Y-15307746D01*
X11024706Y-15307746D02*
X11034229Y-15317269D01*
X11034229Y-15317269D02*
X11053277Y-15326793D01*
X11053277Y-15326793D02*
X11091372Y-15326793D01*
X11091372Y-15326793D02*
X11110420Y-15317269D01*
X11110420Y-15317269D02*
X11119944Y-15307746D01*
X11119944Y-15307746D02*
X11129468Y-15288698D01*
X11300896Y-15269650D02*
X11300896Y-15402984D01*
X11253277Y-15193460D02*
X11205658Y-15336317D01*
X11205658Y-15336317D02*
X11329467Y-15336317D01*
X11396134Y-15202984D02*
X11396134Y-15241079D01*
X11472325Y-15202984D02*
X11472325Y-15241079D01*
X11767563Y-15479174D02*
X11758039Y-15469650D01*
X11758039Y-15469650D02*
X11738991Y-15441079D01*
X11738991Y-15441079D02*
X11729468Y-15422031D01*
X11729468Y-15422031D02*
X11719944Y-15393460D01*
X11719944Y-15393460D02*
X11710420Y-15345841D01*
X11710420Y-15345841D02*
X11710420Y-15307746D01*
X11710420Y-15307746D02*
X11719944Y-15260127D01*
X11719944Y-15260127D02*
X11729468Y-15231555D01*
X11729468Y-15231555D02*
X11738991Y-15212508D01*
X11738991Y-15212508D02*
X11758039Y-15183936D01*
X11758039Y-15183936D02*
X11767563Y-15174412D01*
X11834229Y-15222031D02*
X11843753Y-15212508D01*
X11843753Y-15212508D02*
X11862801Y-15202984D01*
X11862801Y-15202984D02*
X11910420Y-15202984D01*
X11910420Y-15202984D02*
X11929468Y-15212508D01*
X11929468Y-15212508D02*
X11938991Y-15222031D01*
X11938991Y-15222031D02*
X11948515Y-15241079D01*
X11948515Y-15241079D02*
X11948515Y-15260127D01*
X11948515Y-15260127D02*
X11938991Y-15288698D01*
X11938991Y-15288698D02*
X11824706Y-15402984D01*
X11824706Y-15402984D02*
X11948515Y-15402984D01*
X12186610Y-15402984D02*
X12186610Y-15202984D01*
X12272325Y-15402984D02*
X12272325Y-15298222D01*
X12272325Y-15298222D02*
X12262801Y-15279174D01*
X12262801Y-15279174D02*
X12243753Y-15269650D01*
X12243753Y-15269650D02*
X12215182Y-15269650D01*
X12215182Y-15269650D02*
X12196134Y-15279174D01*
X12196134Y-15279174D02*
X12186610Y-15288698D01*
X12396134Y-15402984D02*
X12377087Y-15393460D01*
X12377087Y-15393460D02*
X12367563Y-15383936D01*
X12367563Y-15383936D02*
X12358039Y-15364888D01*
X12358039Y-15364888D02*
X12358039Y-15307746D01*
X12358039Y-15307746D02*
X12367563Y-15288698D01*
X12367563Y-15288698D02*
X12377087Y-15279174D01*
X12377087Y-15279174D02*
X12396134Y-15269650D01*
X12396134Y-15269650D02*
X12424706Y-15269650D01*
X12424706Y-15269650D02*
X12443753Y-15279174D01*
X12443753Y-15279174D02*
X12453277Y-15288698D01*
X12453277Y-15288698D02*
X12462801Y-15307746D01*
X12462801Y-15307746D02*
X12462801Y-15364888D01*
X12462801Y-15364888D02*
X12453277Y-15383936D01*
X12453277Y-15383936D02*
X12443753Y-15393460D01*
X12443753Y-15393460D02*
X12424706Y-15402984D01*
X12424706Y-15402984D02*
X12396134Y-15402984D01*
X12577087Y-15402984D02*
X12558039Y-15393460D01*
X12558039Y-15393460D02*
X12548515Y-15374412D01*
X12548515Y-15374412D02*
X12548515Y-15202984D01*
X12729468Y-15393460D02*
X12710420Y-15402984D01*
X12710420Y-15402984D02*
X12672325Y-15402984D01*
X12672325Y-15402984D02*
X12653277Y-15393460D01*
X12653277Y-15393460D02*
X12643753Y-15374412D01*
X12643753Y-15374412D02*
X12643753Y-15298222D01*
X12643753Y-15298222D02*
X12653277Y-15279174D01*
X12653277Y-15279174D02*
X12672325Y-15269650D01*
X12672325Y-15269650D02*
X12710420Y-15269650D01*
X12710420Y-15269650D02*
X12729468Y-15279174D01*
X12729468Y-15279174D02*
X12738991Y-15298222D01*
X12738991Y-15298222D02*
X12738991Y-15317269D01*
X12738991Y-15317269D02*
X12643753Y-15336317D01*
X12815182Y-15393460D02*
X12834230Y-15402984D01*
X12834230Y-15402984D02*
X12872325Y-15402984D01*
X12872325Y-15402984D02*
X12891372Y-15393460D01*
X12891372Y-15393460D02*
X12900896Y-15374412D01*
X12900896Y-15374412D02*
X12900896Y-15364888D01*
X12900896Y-15364888D02*
X12891372Y-15345841D01*
X12891372Y-15345841D02*
X12872325Y-15336317D01*
X12872325Y-15336317D02*
X12843753Y-15336317D01*
X12843753Y-15336317D02*
X12824706Y-15326793D01*
X12824706Y-15326793D02*
X12815182Y-15307746D01*
X12815182Y-15307746D02*
X12815182Y-15298222D01*
X12815182Y-15298222D02*
X12824706Y-15279174D01*
X12824706Y-15279174D02*
X12843753Y-15269650D01*
X12843753Y-15269650D02*
X12872325Y-15269650D01*
X12872325Y-15269650D02*
X12891372Y-15279174D01*
X13138992Y-15326793D02*
X13291373Y-15326793D01*
X13215182Y-15402984D02*
X13215182Y-15250603D01*
X13519944Y-15202984D02*
X13643753Y-15202984D01*
X13643753Y-15202984D02*
X13577087Y-15279174D01*
X13577087Y-15279174D02*
X13605658Y-15279174D01*
X13605658Y-15279174D02*
X13624706Y-15288698D01*
X13624706Y-15288698D02*
X13634230Y-15298222D01*
X13634230Y-15298222D02*
X13643753Y-15317269D01*
X13643753Y-15317269D02*
X13643753Y-15364888D01*
X13643753Y-15364888D02*
X13634230Y-15383936D01*
X13634230Y-15383936D02*
X13624706Y-15393460D01*
X13624706Y-15393460D02*
X13605658Y-15402984D01*
X13605658Y-15402984D02*
X13548515Y-15402984D01*
X13548515Y-15402984D02*
X13529468Y-15393460D01*
X13529468Y-15393460D02*
X13519944Y-15383936D01*
X13872325Y-15393460D02*
X13891373Y-15402984D01*
X13891373Y-15402984D02*
X13929468Y-15402984D01*
X13929468Y-15402984D02*
X13948515Y-15393460D01*
X13948515Y-15393460D02*
X13958039Y-15374412D01*
X13958039Y-15374412D02*
X13958039Y-15364888D01*
X13958039Y-15364888D02*
X13948515Y-15345841D01*
X13948515Y-15345841D02*
X13929468Y-15336317D01*
X13929468Y-15336317D02*
X13900896Y-15336317D01*
X13900896Y-15336317D02*
X13881849Y-15326793D01*
X13881849Y-15326793D02*
X13872325Y-15307746D01*
X13872325Y-15307746D02*
X13872325Y-15298222D01*
X13872325Y-15298222D02*
X13881849Y-15279174D01*
X13881849Y-15279174D02*
X13900896Y-15269650D01*
X13900896Y-15269650D02*
X13929468Y-15269650D01*
X13929468Y-15269650D02*
X13948515Y-15279174D01*
X14072325Y-15402984D02*
X14053277Y-15393460D01*
X14053277Y-15393460D02*
X14043754Y-15374412D01*
X14043754Y-15374412D02*
X14043754Y-15202984D01*
X14177087Y-15402984D02*
X14158039Y-15393460D01*
X14158039Y-15393460D02*
X14148515Y-15383936D01*
X14148515Y-15383936D02*
X14138992Y-15364888D01*
X14138992Y-15364888D02*
X14138992Y-15307746D01*
X14138992Y-15307746D02*
X14148515Y-15288698D01*
X14148515Y-15288698D02*
X14158039Y-15279174D01*
X14158039Y-15279174D02*
X14177087Y-15269650D01*
X14177087Y-15269650D02*
X14205658Y-15269650D01*
X14205658Y-15269650D02*
X14224706Y-15279174D01*
X14224706Y-15279174D02*
X14234230Y-15288698D01*
X14234230Y-15288698D02*
X14243754Y-15307746D01*
X14243754Y-15307746D02*
X14243754Y-15364888D01*
X14243754Y-15364888D02*
X14234230Y-15383936D01*
X14234230Y-15383936D02*
X14224706Y-15393460D01*
X14224706Y-15393460D02*
X14205658Y-15402984D01*
X14205658Y-15402984D02*
X14177087Y-15402984D01*
X14300896Y-15269650D02*
X14377087Y-15269650D01*
X14329468Y-15202984D02*
X14329468Y-15374412D01*
X14329468Y-15374412D02*
X14338992Y-15393460D01*
X14338992Y-15393460D02*
X14358039Y-15402984D01*
X14358039Y-15402984D02*
X14377087Y-15402984D01*
X14434230Y-15393460D02*
X14453277Y-15402984D01*
X14453277Y-15402984D02*
X14491373Y-15402984D01*
X14491373Y-15402984D02*
X14510420Y-15393460D01*
X14510420Y-15393460D02*
X14519944Y-15374412D01*
X14519944Y-15374412D02*
X14519944Y-15364888D01*
X14519944Y-15364888D02*
X14510420Y-15345841D01*
X14510420Y-15345841D02*
X14491373Y-15336317D01*
X14491373Y-15336317D02*
X14462801Y-15336317D01*
X14462801Y-15336317D02*
X14443754Y-15326793D01*
X14443754Y-15326793D02*
X14434230Y-15307746D01*
X14434230Y-15307746D02*
X14434230Y-15298222D01*
X14434230Y-15298222D02*
X14443754Y-15279174D01*
X14443754Y-15279174D02*
X14462801Y-15269650D01*
X14462801Y-15269650D02*
X14491373Y-15269650D01*
X14491373Y-15269650D02*
X14510420Y-15279174D01*
X14586611Y-15479174D02*
X14596135Y-15469650D01*
X14596135Y-15469650D02*
X14615182Y-15441079D01*
X14615182Y-15441079D02*
X14624706Y-15422031D01*
X14624706Y-15422031D02*
X14634230Y-15393460D01*
X14634230Y-15393460D02*
X14643754Y-15345841D01*
X14643754Y-15345841D02*
X14643754Y-15307746D01*
X14643754Y-15307746D02*
X14634230Y-15260127D01*
X14634230Y-15260127D02*
X14624706Y-15231555D01*
X14624706Y-15231555D02*
X14615182Y-15212508D01*
X14615182Y-15212508D02*
X14596135Y-15183936D01*
X14596135Y-15183936D02*
X14586611Y-15174412D01*
D14*
X8127730Y-15510730D02*
X8127730Y-15640270D01*
X8062960Y-15575500D02*
X8192500Y-15575500D01*
D11*
X8558039Y-15666984D02*
X8443753Y-15666984D01*
X8500896Y-15666984D02*
X8500896Y-15466984D01*
X8500896Y-15466984D02*
X8481848Y-15495555D01*
X8481848Y-15495555D02*
X8462801Y-15514603D01*
X8462801Y-15514603D02*
X8443753Y-15524127D01*
X8643753Y-15647936D02*
X8653277Y-15657460D01*
X8653277Y-15657460D02*
X8643753Y-15666984D01*
X8643753Y-15666984D02*
X8634229Y-15657460D01*
X8634229Y-15657460D02*
X8643753Y-15647936D01*
X8643753Y-15647936D02*
X8643753Y-15666984D01*
X8729467Y-15486031D02*
X8738991Y-15476508D01*
X8738991Y-15476508D02*
X8758039Y-15466984D01*
X8758039Y-15466984D02*
X8805658Y-15466984D01*
X8805658Y-15466984D02*
X8824705Y-15476508D01*
X8824705Y-15476508D02*
X8834229Y-15486031D01*
X8834229Y-15486031D02*
X8843753Y-15505079D01*
X8843753Y-15505079D02*
X8843753Y-15524127D01*
X8843753Y-15524127D02*
X8834229Y-15552698D01*
X8834229Y-15552698D02*
X8719944Y-15666984D01*
X8719944Y-15666984D02*
X8843753Y-15666984D01*
X8938991Y-15666984D02*
X8977086Y-15666984D01*
X8977086Y-15666984D02*
X8996134Y-15657460D01*
X8996134Y-15657460D02*
X9005658Y-15647936D01*
X9005658Y-15647936D02*
X9024705Y-15619365D01*
X9024705Y-15619365D02*
X9034229Y-15581269D01*
X9034229Y-15581269D02*
X9034229Y-15505079D01*
X9034229Y-15505079D02*
X9024705Y-15486031D01*
X9024705Y-15486031D02*
X9015182Y-15476508D01*
X9015182Y-15476508D02*
X8996134Y-15466984D01*
X8996134Y-15466984D02*
X8958039Y-15466984D01*
X8958039Y-15466984D02*
X8938991Y-15476508D01*
X8938991Y-15476508D02*
X8929467Y-15486031D01*
X8929467Y-15486031D02*
X8919944Y-15505079D01*
X8919944Y-15505079D02*
X8919944Y-15552698D01*
X8919944Y-15552698D02*
X8929467Y-15571746D01*
X8929467Y-15571746D02*
X8938991Y-15581269D01*
X8938991Y-15581269D02*
X8958039Y-15590793D01*
X8958039Y-15590793D02*
X8996134Y-15590793D01*
X8996134Y-15590793D02*
X9015182Y-15581269D01*
X9015182Y-15581269D02*
X9024705Y-15571746D01*
X9024705Y-15571746D02*
X9034229Y-15552698D01*
X9215182Y-15466984D02*
X9119944Y-15466984D01*
X9119944Y-15466984D02*
X9110420Y-15562222D01*
X9110420Y-15562222D02*
X9119944Y-15552698D01*
X9119944Y-15552698D02*
X9138991Y-15543174D01*
X9138991Y-15543174D02*
X9186610Y-15543174D01*
X9186610Y-15543174D02*
X9205658Y-15552698D01*
X9205658Y-15552698D02*
X9215182Y-15562222D01*
X9215182Y-15562222D02*
X9224705Y-15581269D01*
X9224705Y-15581269D02*
X9224705Y-15628888D01*
X9224705Y-15628888D02*
X9215182Y-15647936D01*
X9215182Y-15647936D02*
X9205658Y-15657460D01*
X9205658Y-15657460D02*
X9186610Y-15666984D01*
X9186610Y-15666984D02*
X9138991Y-15666984D01*
X9138991Y-15666984D02*
X9119944Y-15657460D01*
X9119944Y-15657460D02*
X9110420Y-15647936D01*
X9310420Y-15666984D02*
X9310420Y-15533650D01*
X9310420Y-15552698D02*
X9319944Y-15543174D01*
X9319944Y-15543174D02*
X9338991Y-15533650D01*
X9338991Y-15533650D02*
X9367563Y-15533650D01*
X9367563Y-15533650D02*
X9386610Y-15543174D01*
X9386610Y-15543174D02*
X9396134Y-15562222D01*
X9396134Y-15562222D02*
X9396134Y-15666984D01*
X9396134Y-15562222D02*
X9405658Y-15543174D01*
X9405658Y-15543174D02*
X9424705Y-15533650D01*
X9424705Y-15533650D02*
X9453277Y-15533650D01*
X9453277Y-15533650D02*
X9472325Y-15543174D01*
X9472325Y-15543174D02*
X9481848Y-15562222D01*
X9481848Y-15562222D02*
X9481848Y-15666984D01*
X9577086Y-15666984D02*
X9577086Y-15533650D01*
X9577086Y-15552698D02*
X9586610Y-15543174D01*
X9586610Y-15543174D02*
X9605658Y-15533650D01*
X9605658Y-15533650D02*
X9634229Y-15533650D01*
X9634229Y-15533650D02*
X9653277Y-15543174D01*
X9653277Y-15543174D02*
X9662801Y-15562222D01*
X9662801Y-15562222D02*
X9662801Y-15666984D01*
X9662801Y-15562222D02*
X9672325Y-15543174D01*
X9672325Y-15543174D02*
X9691372Y-15533650D01*
X9691372Y-15533650D02*
X9719944Y-15533650D01*
X9719944Y-15533650D02*
X9738991Y-15543174D01*
X9738991Y-15543174D02*
X9748515Y-15562222D01*
X9748515Y-15562222D02*
X9748515Y-15666984D01*
X10138991Y-15457460D02*
X9967563Y-15714603D01*
X10396134Y-15466984D02*
X10415182Y-15466984D01*
X10415182Y-15466984D02*
X10434229Y-15476508D01*
X10434229Y-15476508D02*
X10443753Y-15486031D01*
X10443753Y-15486031D02*
X10453277Y-15505079D01*
X10453277Y-15505079D02*
X10462801Y-15543174D01*
X10462801Y-15543174D02*
X10462801Y-15590793D01*
X10462801Y-15590793D02*
X10453277Y-15628888D01*
X10453277Y-15628888D02*
X10443753Y-15647936D01*
X10443753Y-15647936D02*
X10434229Y-15657460D01*
X10434229Y-15657460D02*
X10415182Y-15666984D01*
X10415182Y-15666984D02*
X10396134Y-15666984D01*
X10396134Y-15666984D02*
X10377087Y-15657460D01*
X10377087Y-15657460D02*
X10367563Y-15647936D01*
X10367563Y-15647936D02*
X10358039Y-15628888D01*
X10358039Y-15628888D02*
X10348515Y-15590793D01*
X10348515Y-15590793D02*
X10348515Y-15543174D01*
X10348515Y-15543174D02*
X10358039Y-15505079D01*
X10358039Y-15505079D02*
X10367563Y-15486031D01*
X10367563Y-15486031D02*
X10377087Y-15476508D01*
X10377087Y-15476508D02*
X10396134Y-15466984D01*
X10548515Y-15647936D02*
X10558039Y-15657460D01*
X10558039Y-15657460D02*
X10548515Y-15666984D01*
X10548515Y-15666984D02*
X10538991Y-15657460D01*
X10538991Y-15657460D02*
X10548515Y-15647936D01*
X10548515Y-15647936D02*
X10548515Y-15666984D01*
X10681848Y-15466984D02*
X10700896Y-15466984D01*
X10700896Y-15466984D02*
X10719944Y-15476508D01*
X10719944Y-15476508D02*
X10729468Y-15486031D01*
X10729468Y-15486031D02*
X10738991Y-15505079D01*
X10738991Y-15505079D02*
X10748515Y-15543174D01*
X10748515Y-15543174D02*
X10748515Y-15590793D01*
X10748515Y-15590793D02*
X10738991Y-15628888D01*
X10738991Y-15628888D02*
X10729468Y-15647936D01*
X10729468Y-15647936D02*
X10719944Y-15657460D01*
X10719944Y-15657460D02*
X10700896Y-15666984D01*
X10700896Y-15666984D02*
X10681848Y-15666984D01*
X10681848Y-15666984D02*
X10662801Y-15657460D01*
X10662801Y-15657460D02*
X10653277Y-15647936D01*
X10653277Y-15647936D02*
X10643753Y-15628888D01*
X10643753Y-15628888D02*
X10634229Y-15590793D01*
X10634229Y-15590793D02*
X10634229Y-15543174D01*
X10634229Y-15543174D02*
X10643753Y-15505079D01*
X10643753Y-15505079D02*
X10653277Y-15486031D01*
X10653277Y-15486031D02*
X10662801Y-15476508D01*
X10662801Y-15476508D02*
X10681848Y-15466984D01*
X10929468Y-15466984D02*
X10834229Y-15466984D01*
X10834229Y-15466984D02*
X10824706Y-15562222D01*
X10824706Y-15562222D02*
X10834229Y-15552698D01*
X10834229Y-15552698D02*
X10853277Y-15543174D01*
X10853277Y-15543174D02*
X10900896Y-15543174D01*
X10900896Y-15543174D02*
X10919944Y-15552698D01*
X10919944Y-15552698D02*
X10929468Y-15562222D01*
X10929468Y-15562222D02*
X10938991Y-15581269D01*
X10938991Y-15581269D02*
X10938991Y-15628888D01*
X10938991Y-15628888D02*
X10929468Y-15647936D01*
X10929468Y-15647936D02*
X10919944Y-15657460D01*
X10919944Y-15657460D02*
X10900896Y-15666984D01*
X10900896Y-15666984D02*
X10853277Y-15666984D01*
X10853277Y-15666984D02*
X10834229Y-15657460D01*
X10834229Y-15657460D02*
X10824706Y-15647936D01*
X11129468Y-15666984D02*
X11015182Y-15666984D01*
X11072325Y-15666984D02*
X11072325Y-15466984D01*
X11072325Y-15466984D02*
X11053277Y-15495555D01*
X11053277Y-15495555D02*
X11034229Y-15514603D01*
X11034229Y-15514603D02*
X11015182Y-15524127D01*
X11253277Y-15466984D02*
X11272325Y-15466984D01*
X11272325Y-15466984D02*
X11291372Y-15476508D01*
X11291372Y-15476508D02*
X11300896Y-15486031D01*
X11300896Y-15486031D02*
X11310420Y-15505079D01*
X11310420Y-15505079D02*
X11319944Y-15543174D01*
X11319944Y-15543174D02*
X11319944Y-15590793D01*
X11319944Y-15590793D02*
X11310420Y-15628888D01*
X11310420Y-15628888D02*
X11300896Y-15647936D01*
X11300896Y-15647936D02*
X11291372Y-15657460D01*
X11291372Y-15657460D02*
X11272325Y-15666984D01*
X11272325Y-15666984D02*
X11253277Y-15666984D01*
X11253277Y-15666984D02*
X11234229Y-15657460D01*
X11234229Y-15657460D02*
X11224706Y-15647936D01*
X11224706Y-15647936D02*
X11215182Y-15628888D01*
X11215182Y-15628888D02*
X11205658Y-15590793D01*
X11205658Y-15590793D02*
X11205658Y-15543174D01*
X11205658Y-15543174D02*
X11215182Y-15505079D01*
X11215182Y-15505079D02*
X11224706Y-15486031D01*
X11224706Y-15486031D02*
X11234229Y-15476508D01*
X11234229Y-15476508D02*
X11253277Y-15466984D01*
X11396134Y-15466984D02*
X11396134Y-15505079D01*
X11472325Y-15466984D02*
X11472325Y-15505079D01*
X11767563Y-15743174D02*
X11758039Y-15733650D01*
X11758039Y-15733650D02*
X11738991Y-15705079D01*
X11738991Y-15705079D02*
X11729468Y-15686031D01*
X11729468Y-15686031D02*
X11719944Y-15657460D01*
X11719944Y-15657460D02*
X11710420Y-15609841D01*
X11710420Y-15609841D02*
X11710420Y-15571746D01*
X11710420Y-15571746D02*
X11719944Y-15524127D01*
X11719944Y-15524127D02*
X11729468Y-15495555D01*
X11729468Y-15495555D02*
X11738991Y-15476508D01*
X11738991Y-15476508D02*
X11758039Y-15447936D01*
X11758039Y-15447936D02*
X11767563Y-15438412D01*
X11948515Y-15666984D02*
X11834229Y-15666984D01*
X11891372Y-15666984D02*
X11891372Y-15466984D01*
X11891372Y-15466984D02*
X11872325Y-15495555D01*
X11872325Y-15495555D02*
X11853277Y-15514603D01*
X11853277Y-15514603D02*
X11834229Y-15524127D01*
X12024706Y-15486031D02*
X12034229Y-15476508D01*
X12034229Y-15476508D02*
X12053277Y-15466984D01*
X12053277Y-15466984D02*
X12100896Y-15466984D01*
X12100896Y-15466984D02*
X12119944Y-15476508D01*
X12119944Y-15476508D02*
X12129468Y-15486031D01*
X12129468Y-15486031D02*
X12138991Y-15505079D01*
X12138991Y-15505079D02*
X12138991Y-15524127D01*
X12138991Y-15524127D02*
X12129468Y-15552698D01*
X12129468Y-15552698D02*
X12015182Y-15666984D01*
X12015182Y-15666984D02*
X12138991Y-15666984D01*
X12377087Y-15666984D02*
X12377087Y-15466984D01*
X12462801Y-15666984D02*
X12462801Y-15562222D01*
X12462801Y-15562222D02*
X12453277Y-15543174D01*
X12453277Y-15543174D02*
X12434230Y-15533650D01*
X12434230Y-15533650D02*
X12405658Y-15533650D01*
X12405658Y-15533650D02*
X12386610Y-15543174D01*
X12386610Y-15543174D02*
X12377087Y-15552698D01*
X12586610Y-15666984D02*
X12567563Y-15657460D01*
X12567563Y-15657460D02*
X12558039Y-15647936D01*
X12558039Y-15647936D02*
X12548515Y-15628888D01*
X12548515Y-15628888D02*
X12548515Y-15571746D01*
X12548515Y-15571746D02*
X12558039Y-15552698D01*
X12558039Y-15552698D02*
X12567563Y-15543174D01*
X12567563Y-15543174D02*
X12586610Y-15533650D01*
X12586610Y-15533650D02*
X12615182Y-15533650D01*
X12615182Y-15533650D02*
X12634230Y-15543174D01*
X12634230Y-15543174D02*
X12643753Y-15552698D01*
X12643753Y-15552698D02*
X12653277Y-15571746D01*
X12653277Y-15571746D02*
X12653277Y-15628888D01*
X12653277Y-15628888D02*
X12643753Y-15647936D01*
X12643753Y-15647936D02*
X12634230Y-15657460D01*
X12634230Y-15657460D02*
X12615182Y-15666984D01*
X12615182Y-15666984D02*
X12586610Y-15666984D01*
X12767563Y-15666984D02*
X12748515Y-15657460D01*
X12748515Y-15657460D02*
X12738991Y-15638412D01*
X12738991Y-15638412D02*
X12738991Y-15466984D01*
X12919944Y-15657460D02*
X12900896Y-15666984D01*
X12900896Y-15666984D02*
X12862801Y-15666984D01*
X12862801Y-15666984D02*
X12843753Y-15657460D01*
X12843753Y-15657460D02*
X12834230Y-15638412D01*
X12834230Y-15638412D02*
X12834230Y-15562222D01*
X12834230Y-15562222D02*
X12843753Y-15543174D01*
X12843753Y-15543174D02*
X12862801Y-15533650D01*
X12862801Y-15533650D02*
X12900896Y-15533650D01*
X12900896Y-15533650D02*
X12919944Y-15543174D01*
X12919944Y-15543174D02*
X12929468Y-15562222D01*
X12929468Y-15562222D02*
X12929468Y-15581269D01*
X12929468Y-15581269D02*
X12834230Y-15600317D01*
X13005658Y-15657460D02*
X13024706Y-15666984D01*
X13024706Y-15666984D02*
X13062801Y-15666984D01*
X13062801Y-15666984D02*
X13081849Y-15657460D01*
X13081849Y-15657460D02*
X13091372Y-15638412D01*
X13091372Y-15638412D02*
X13091372Y-15628888D01*
X13091372Y-15628888D02*
X13081849Y-15609841D01*
X13081849Y-15609841D02*
X13062801Y-15600317D01*
X13062801Y-15600317D02*
X13034230Y-15600317D01*
X13034230Y-15600317D02*
X13015182Y-15590793D01*
X13015182Y-15590793D02*
X13005658Y-15571746D01*
X13005658Y-15571746D02*
X13005658Y-15562222D01*
X13005658Y-15562222D02*
X13015182Y-15543174D01*
X13015182Y-15543174D02*
X13034230Y-15533650D01*
X13034230Y-15533650D02*
X13062801Y-15533650D01*
X13062801Y-15533650D02*
X13081849Y-15543174D01*
X13158039Y-15743174D02*
X13167563Y-15733650D01*
X13167563Y-15733650D02*
X13186611Y-15705079D01*
X13186611Y-15705079D02*
X13196134Y-15686031D01*
X13196134Y-15686031D02*
X13205658Y-15657460D01*
X13205658Y-15657460D02*
X13215182Y-15609841D01*
X13215182Y-15609841D02*
X13215182Y-15571746D01*
X13215182Y-15571746D02*
X13205658Y-15524127D01*
X13205658Y-15524127D02*
X13196134Y-15495555D01*
X13196134Y-15495555D02*
X13186611Y-15476508D01*
X13186611Y-15476508D02*
X13167563Y-15447936D01*
X13167563Y-15447936D02*
X13158039Y-15438412D01*
X8163211Y-15910211D02*
X8163211Y-15768789D01*
X8021789Y-15768789D01*
X8021789Y-15910211D01*
X8163211Y-15910211D01*
X8443753Y-15750031D02*
X8453277Y-15740508D01*
X8453277Y-15740508D02*
X8472324Y-15730984D01*
X8472324Y-15730984D02*
X8519944Y-15730984D01*
X8519944Y-15730984D02*
X8538991Y-15740508D01*
X8538991Y-15740508D02*
X8548515Y-15750031D01*
X8548515Y-15750031D02*
X8558039Y-15769079D01*
X8558039Y-15769079D02*
X8558039Y-15788127D01*
X8558039Y-15788127D02*
X8548515Y-15816698D01*
X8548515Y-15816698D02*
X8434229Y-15930984D01*
X8434229Y-15930984D02*
X8558039Y-15930984D01*
X8643753Y-15911936D02*
X8653277Y-15921460D01*
X8653277Y-15921460D02*
X8643753Y-15930984D01*
X8643753Y-15930984D02*
X8634229Y-15921460D01*
X8634229Y-15921460D02*
X8643753Y-15911936D01*
X8643753Y-15911936D02*
X8643753Y-15930984D01*
X8834229Y-15730984D02*
X8738991Y-15730984D01*
X8738991Y-15730984D02*
X8729467Y-15826222D01*
X8729467Y-15826222D02*
X8738991Y-15816698D01*
X8738991Y-15816698D02*
X8758039Y-15807174D01*
X8758039Y-15807174D02*
X8805658Y-15807174D01*
X8805658Y-15807174D02*
X8824705Y-15816698D01*
X8824705Y-15816698D02*
X8834229Y-15826222D01*
X8834229Y-15826222D02*
X8843753Y-15845269D01*
X8843753Y-15845269D02*
X8843753Y-15892888D01*
X8843753Y-15892888D02*
X8834229Y-15911936D01*
X8834229Y-15911936D02*
X8824705Y-15921460D01*
X8824705Y-15921460D02*
X8805658Y-15930984D01*
X8805658Y-15930984D02*
X8758039Y-15930984D01*
X8758039Y-15930984D02*
X8738991Y-15921460D01*
X8738991Y-15921460D02*
X8729467Y-15911936D01*
X8967563Y-15730984D02*
X8986610Y-15730984D01*
X8986610Y-15730984D02*
X9005658Y-15740508D01*
X9005658Y-15740508D02*
X9015182Y-15750031D01*
X9015182Y-15750031D02*
X9024705Y-15769079D01*
X9024705Y-15769079D02*
X9034229Y-15807174D01*
X9034229Y-15807174D02*
X9034229Y-15854793D01*
X9034229Y-15854793D02*
X9024705Y-15892888D01*
X9024705Y-15892888D02*
X9015182Y-15911936D01*
X9015182Y-15911936D02*
X9005658Y-15921460D01*
X9005658Y-15921460D02*
X8986610Y-15930984D01*
X8986610Y-15930984D02*
X8967563Y-15930984D01*
X8967563Y-15930984D02*
X8948515Y-15921460D01*
X8948515Y-15921460D02*
X8938991Y-15911936D01*
X8938991Y-15911936D02*
X8929467Y-15892888D01*
X8929467Y-15892888D02*
X8919944Y-15854793D01*
X8919944Y-15854793D02*
X8919944Y-15807174D01*
X8919944Y-15807174D02*
X8929467Y-15769079D01*
X8929467Y-15769079D02*
X8938991Y-15750031D01*
X8938991Y-15750031D02*
X8948515Y-15740508D01*
X8948515Y-15740508D02*
X8967563Y-15730984D01*
X9158039Y-15730984D02*
X9177086Y-15730984D01*
X9177086Y-15730984D02*
X9196134Y-15740508D01*
X9196134Y-15740508D02*
X9205658Y-15750031D01*
X9205658Y-15750031D02*
X9215182Y-15769079D01*
X9215182Y-15769079D02*
X9224705Y-15807174D01*
X9224705Y-15807174D02*
X9224705Y-15854793D01*
X9224705Y-15854793D02*
X9215182Y-15892888D01*
X9215182Y-15892888D02*
X9205658Y-15911936D01*
X9205658Y-15911936D02*
X9196134Y-15921460D01*
X9196134Y-15921460D02*
X9177086Y-15930984D01*
X9177086Y-15930984D02*
X9158039Y-15930984D01*
X9158039Y-15930984D02*
X9138991Y-15921460D01*
X9138991Y-15921460D02*
X9129467Y-15911936D01*
X9129467Y-15911936D02*
X9119944Y-15892888D01*
X9119944Y-15892888D02*
X9110420Y-15854793D01*
X9110420Y-15854793D02*
X9110420Y-15807174D01*
X9110420Y-15807174D02*
X9119944Y-15769079D01*
X9119944Y-15769079D02*
X9129467Y-15750031D01*
X9129467Y-15750031D02*
X9138991Y-15740508D01*
X9138991Y-15740508D02*
X9158039Y-15730984D01*
X9310420Y-15930984D02*
X9310420Y-15797650D01*
X9310420Y-15816698D02*
X9319944Y-15807174D01*
X9319944Y-15807174D02*
X9338991Y-15797650D01*
X9338991Y-15797650D02*
X9367563Y-15797650D01*
X9367563Y-15797650D02*
X9386610Y-15807174D01*
X9386610Y-15807174D02*
X9396134Y-15826222D01*
X9396134Y-15826222D02*
X9396134Y-15930984D01*
X9396134Y-15826222D02*
X9405658Y-15807174D01*
X9405658Y-15807174D02*
X9424705Y-15797650D01*
X9424705Y-15797650D02*
X9453277Y-15797650D01*
X9453277Y-15797650D02*
X9472325Y-15807174D01*
X9472325Y-15807174D02*
X9481848Y-15826222D01*
X9481848Y-15826222D02*
X9481848Y-15930984D01*
X9577086Y-15930984D02*
X9577086Y-15797650D01*
X9577086Y-15816698D02*
X9586610Y-15807174D01*
X9586610Y-15807174D02*
X9605658Y-15797650D01*
X9605658Y-15797650D02*
X9634229Y-15797650D01*
X9634229Y-15797650D02*
X9653277Y-15807174D01*
X9653277Y-15807174D02*
X9662801Y-15826222D01*
X9662801Y-15826222D02*
X9662801Y-15930984D01*
X9662801Y-15826222D02*
X9672325Y-15807174D01*
X9672325Y-15807174D02*
X9691372Y-15797650D01*
X9691372Y-15797650D02*
X9719944Y-15797650D01*
X9719944Y-15797650D02*
X9738991Y-15807174D01*
X9738991Y-15807174D02*
X9748515Y-15826222D01*
X9748515Y-15826222D02*
X9748515Y-15930984D01*
X10138991Y-15721460D02*
X9967563Y-15978603D01*
X10396134Y-15730984D02*
X10415182Y-15730984D01*
X10415182Y-15730984D02*
X10434229Y-15740508D01*
X10434229Y-15740508D02*
X10443753Y-15750031D01*
X10443753Y-15750031D02*
X10453277Y-15769079D01*
X10453277Y-15769079D02*
X10462801Y-15807174D01*
X10462801Y-15807174D02*
X10462801Y-15854793D01*
X10462801Y-15854793D02*
X10453277Y-15892888D01*
X10453277Y-15892888D02*
X10443753Y-15911936D01*
X10443753Y-15911936D02*
X10434229Y-15921460D01*
X10434229Y-15921460D02*
X10415182Y-15930984D01*
X10415182Y-15930984D02*
X10396134Y-15930984D01*
X10396134Y-15930984D02*
X10377087Y-15921460D01*
X10377087Y-15921460D02*
X10367563Y-15911936D01*
X10367563Y-15911936D02*
X10358039Y-15892888D01*
X10358039Y-15892888D02*
X10348515Y-15854793D01*
X10348515Y-15854793D02*
X10348515Y-15807174D01*
X10348515Y-15807174D02*
X10358039Y-15769079D01*
X10358039Y-15769079D02*
X10367563Y-15750031D01*
X10367563Y-15750031D02*
X10377087Y-15740508D01*
X10377087Y-15740508D02*
X10396134Y-15730984D01*
X10548515Y-15911936D02*
X10558039Y-15921460D01*
X10558039Y-15921460D02*
X10548515Y-15930984D01*
X10548515Y-15930984D02*
X10538991Y-15921460D01*
X10538991Y-15921460D02*
X10548515Y-15911936D01*
X10548515Y-15911936D02*
X10548515Y-15930984D01*
X10681848Y-15730984D02*
X10700896Y-15730984D01*
X10700896Y-15730984D02*
X10719944Y-15740508D01*
X10719944Y-15740508D02*
X10729468Y-15750031D01*
X10729468Y-15750031D02*
X10738991Y-15769079D01*
X10738991Y-15769079D02*
X10748515Y-15807174D01*
X10748515Y-15807174D02*
X10748515Y-15854793D01*
X10748515Y-15854793D02*
X10738991Y-15892888D01*
X10738991Y-15892888D02*
X10729468Y-15911936D01*
X10729468Y-15911936D02*
X10719944Y-15921460D01*
X10719944Y-15921460D02*
X10700896Y-15930984D01*
X10700896Y-15930984D02*
X10681848Y-15930984D01*
X10681848Y-15930984D02*
X10662801Y-15921460D01*
X10662801Y-15921460D02*
X10653277Y-15911936D01*
X10653277Y-15911936D02*
X10643753Y-15892888D01*
X10643753Y-15892888D02*
X10634229Y-15854793D01*
X10634229Y-15854793D02*
X10634229Y-15807174D01*
X10634229Y-15807174D02*
X10643753Y-15769079D01*
X10643753Y-15769079D02*
X10653277Y-15750031D01*
X10653277Y-15750031D02*
X10662801Y-15740508D01*
X10662801Y-15740508D02*
X10681848Y-15730984D01*
X10843753Y-15930984D02*
X10881848Y-15930984D01*
X10881848Y-15930984D02*
X10900896Y-15921460D01*
X10900896Y-15921460D02*
X10910420Y-15911936D01*
X10910420Y-15911936D02*
X10929468Y-15883365D01*
X10929468Y-15883365D02*
X10938991Y-15845269D01*
X10938991Y-15845269D02*
X10938991Y-15769079D01*
X10938991Y-15769079D02*
X10929468Y-15750031D01*
X10929468Y-15750031D02*
X10919944Y-15740508D01*
X10919944Y-15740508D02*
X10900896Y-15730984D01*
X10900896Y-15730984D02*
X10862801Y-15730984D01*
X10862801Y-15730984D02*
X10843753Y-15740508D01*
X10843753Y-15740508D02*
X10834229Y-15750031D01*
X10834229Y-15750031D02*
X10824706Y-15769079D01*
X10824706Y-15769079D02*
X10824706Y-15816698D01*
X10824706Y-15816698D02*
X10834229Y-15835746D01*
X10834229Y-15835746D02*
X10843753Y-15845269D01*
X10843753Y-15845269D02*
X10862801Y-15854793D01*
X10862801Y-15854793D02*
X10900896Y-15854793D01*
X10900896Y-15854793D02*
X10919944Y-15845269D01*
X10919944Y-15845269D02*
X10929468Y-15835746D01*
X10929468Y-15835746D02*
X10938991Y-15816698D01*
X11053277Y-15816698D02*
X11034229Y-15807174D01*
X11034229Y-15807174D02*
X11024706Y-15797650D01*
X11024706Y-15797650D02*
X11015182Y-15778603D01*
X11015182Y-15778603D02*
X11015182Y-15769079D01*
X11015182Y-15769079D02*
X11024706Y-15750031D01*
X11024706Y-15750031D02*
X11034229Y-15740508D01*
X11034229Y-15740508D02*
X11053277Y-15730984D01*
X11053277Y-15730984D02*
X11091372Y-15730984D01*
X11091372Y-15730984D02*
X11110420Y-15740508D01*
X11110420Y-15740508D02*
X11119944Y-15750031D01*
X11119944Y-15750031D02*
X11129468Y-15769079D01*
X11129468Y-15769079D02*
X11129468Y-15778603D01*
X11129468Y-15778603D02*
X11119944Y-15797650D01*
X11119944Y-15797650D02*
X11110420Y-15807174D01*
X11110420Y-15807174D02*
X11091372Y-15816698D01*
X11091372Y-15816698D02*
X11053277Y-15816698D01*
X11053277Y-15816698D02*
X11034229Y-15826222D01*
X11034229Y-15826222D02*
X11024706Y-15835746D01*
X11024706Y-15835746D02*
X11015182Y-15854793D01*
X11015182Y-15854793D02*
X11015182Y-15892888D01*
X11015182Y-15892888D02*
X11024706Y-15911936D01*
X11024706Y-15911936D02*
X11034229Y-15921460D01*
X11034229Y-15921460D02*
X11053277Y-15930984D01*
X11053277Y-15930984D02*
X11091372Y-15930984D01*
X11091372Y-15930984D02*
X11110420Y-15921460D01*
X11110420Y-15921460D02*
X11119944Y-15911936D01*
X11119944Y-15911936D02*
X11129468Y-15892888D01*
X11129468Y-15892888D02*
X11129468Y-15854793D01*
X11129468Y-15854793D02*
X11119944Y-15835746D01*
X11119944Y-15835746D02*
X11110420Y-15826222D01*
X11110420Y-15826222D02*
X11091372Y-15816698D01*
X11300896Y-15797650D02*
X11300896Y-15930984D01*
X11253277Y-15721460D02*
X11205658Y-15864317D01*
X11205658Y-15864317D02*
X11329467Y-15864317D01*
X11396134Y-15730984D02*
X11396134Y-15769079D01*
X11472325Y-15730984D02*
X11472325Y-15769079D01*
X11767563Y-16007174D02*
X11758039Y-15997650D01*
X11758039Y-15997650D02*
X11738991Y-15969079D01*
X11738991Y-15969079D02*
X11729468Y-15950031D01*
X11729468Y-15950031D02*
X11719944Y-15921460D01*
X11719944Y-15921460D02*
X11710420Y-15873841D01*
X11710420Y-15873841D02*
X11710420Y-15835746D01*
X11710420Y-15835746D02*
X11719944Y-15788127D01*
X11719944Y-15788127D02*
X11729468Y-15759555D01*
X11729468Y-15759555D02*
X11738991Y-15740508D01*
X11738991Y-15740508D02*
X11758039Y-15711936D01*
X11758039Y-15711936D02*
X11767563Y-15702412D01*
X11929468Y-15797650D02*
X11929468Y-15930984D01*
X11881848Y-15721460D02*
X11834229Y-15864317D01*
X11834229Y-15864317D02*
X11958039Y-15864317D01*
X12186610Y-15930984D02*
X12186610Y-15730984D01*
X12272325Y-15930984D02*
X12272325Y-15826222D01*
X12272325Y-15826222D02*
X12262801Y-15807174D01*
X12262801Y-15807174D02*
X12243753Y-15797650D01*
X12243753Y-15797650D02*
X12215182Y-15797650D01*
X12215182Y-15797650D02*
X12196134Y-15807174D01*
X12196134Y-15807174D02*
X12186610Y-15816698D01*
X12396134Y-15930984D02*
X12377087Y-15921460D01*
X12377087Y-15921460D02*
X12367563Y-15911936D01*
X12367563Y-15911936D02*
X12358039Y-15892888D01*
X12358039Y-15892888D02*
X12358039Y-15835746D01*
X12358039Y-15835746D02*
X12367563Y-15816698D01*
X12367563Y-15816698D02*
X12377087Y-15807174D01*
X12377087Y-15807174D02*
X12396134Y-15797650D01*
X12396134Y-15797650D02*
X12424706Y-15797650D01*
X12424706Y-15797650D02*
X12443753Y-15807174D01*
X12443753Y-15807174D02*
X12453277Y-15816698D01*
X12453277Y-15816698D02*
X12462801Y-15835746D01*
X12462801Y-15835746D02*
X12462801Y-15892888D01*
X12462801Y-15892888D02*
X12453277Y-15911936D01*
X12453277Y-15911936D02*
X12443753Y-15921460D01*
X12443753Y-15921460D02*
X12424706Y-15930984D01*
X12424706Y-15930984D02*
X12396134Y-15930984D01*
X12577087Y-15930984D02*
X12558039Y-15921460D01*
X12558039Y-15921460D02*
X12548515Y-15902412D01*
X12548515Y-15902412D02*
X12548515Y-15730984D01*
X12729468Y-15921460D02*
X12710420Y-15930984D01*
X12710420Y-15930984D02*
X12672325Y-15930984D01*
X12672325Y-15930984D02*
X12653277Y-15921460D01*
X12653277Y-15921460D02*
X12643753Y-15902412D01*
X12643753Y-15902412D02*
X12643753Y-15826222D01*
X12643753Y-15826222D02*
X12653277Y-15807174D01*
X12653277Y-15807174D02*
X12672325Y-15797650D01*
X12672325Y-15797650D02*
X12710420Y-15797650D01*
X12710420Y-15797650D02*
X12729468Y-15807174D01*
X12729468Y-15807174D02*
X12738991Y-15826222D01*
X12738991Y-15826222D02*
X12738991Y-15845269D01*
X12738991Y-15845269D02*
X12643753Y-15864317D01*
X12815182Y-15921460D02*
X12834230Y-15930984D01*
X12834230Y-15930984D02*
X12872325Y-15930984D01*
X12872325Y-15930984D02*
X12891372Y-15921460D01*
X12891372Y-15921460D02*
X12900896Y-15902412D01*
X12900896Y-15902412D02*
X12900896Y-15892888D01*
X12900896Y-15892888D02*
X12891372Y-15873841D01*
X12891372Y-15873841D02*
X12872325Y-15864317D01*
X12872325Y-15864317D02*
X12843753Y-15864317D01*
X12843753Y-15864317D02*
X12824706Y-15854793D01*
X12824706Y-15854793D02*
X12815182Y-15835746D01*
X12815182Y-15835746D02*
X12815182Y-15826222D01*
X12815182Y-15826222D02*
X12824706Y-15807174D01*
X12824706Y-15807174D02*
X12843753Y-15797650D01*
X12843753Y-15797650D02*
X12872325Y-15797650D01*
X12872325Y-15797650D02*
X12891372Y-15807174D01*
X12967563Y-16007174D02*
X12977087Y-15997650D01*
X12977087Y-15997650D02*
X12996134Y-15969079D01*
X12996134Y-15969079D02*
X13005658Y-15950031D01*
X13005658Y-15950031D02*
X13015182Y-15921460D01*
X13015182Y-15921460D02*
X13024706Y-15873841D01*
X13024706Y-15873841D02*
X13024706Y-15835746D01*
X13024706Y-15835746D02*
X13015182Y-15788127D01*
X13015182Y-15788127D02*
X13005658Y-15759555D01*
X13005658Y-15759555D02*
X12996134Y-15740508D01*
X12996134Y-15740508D02*
X12977087Y-15711936D01*
X12977087Y-15711936D02*
X12967563Y-15702412D01*
M02*
