M48
; DRILL file {KiCad 7.0.7} date 2024 January 03, Wednesday 18:52:00
; FORMAT={-:-/ absolute / metric / decimal}
; #@! TF.CreationDate,2024-01-03T18:52:00-05:00
; #@! TF.GenerationSoftware,Kicad,Pcbnew,7.0.7
; #@! TF.FileFunction,Plated,1,2,PTH
FMAT,2
METRIC
; #@! TA.AperFunction,Plated,PTH,ViaDrill
T1C0.300
; #@! TA.AperFunction,Plated,PTH,ComponentDrill
T2C1.000
; #@! TA.AperFunction,Plated,PTH,ComponentDrill
T3C1.295
; #@! TA.AperFunction,Plated,PTH,ComponentDrill
T4C2.500
%
G90
G05
T1
X86.5Y-60.5
X87.0Y-110.0
X87.5Y-99.0
X88.0Y-69.0
X88.0Y-101.5
X88.5Y-72.5
X91.5Y-72.0
X91.5Y-95.0
X91.5Y-111.0
X92.5Y-96.0
X93.5Y-101.0
X93.5Y-106.5
X95.0Y-106.0
X95.5Y-72.0
X98.5Y-105.5
X99.0Y-128.0
X99.5Y-72.0
X100.5Y-102.5
X100.5Y-103.5
X100.5Y-110.5
X104.5Y-110.5
X105.5Y-60.5
X105.5Y-63.5
X106.0Y-53.5
X106.5Y-71.0
X114.0Y-71.0
X134.5Y-109.0
X135.0Y-65.0
X154.0Y-108.0
X154.5Y-65.0
X173.0Y-86.0
X173.0Y-116.5
X173.5Y-72.5
X174.5Y-95.0
X179.0Y-86.0
X180.0Y-72.5
X180.5Y-140.0
X185.0Y-120.0
T2
X84.5Y-107.725
X84.5Y-110.265
T3
X115.1Y-43.635
X115.1Y-67.935
X115.1Y-75.385
X115.1Y-81.385
X115.1Y-97.635
X115.1Y-121.935
X115.1Y-129.385
X115.1Y-135.385
X176.5Y-76.835
X176.5Y-82.735
X176.5Y-130.835
X176.5Y-136.735
T4
X186.5Y-73.0
X186.5Y-83.0
X186.5Y-97.0
X186.5Y-107.0
T2
X90.312Y-99.825G85X90.312Y-97.825
G05
X94.312Y-103.525G85X92.312Y-103.525
G05
X96.312Y-100.075G85X96.312Y-97.575
G05
T0
M30
