G04 #@! TF.GenerationSoftware,KiCad,Pcbnew,7.0.7*
G04 #@! TF.CreationDate,2024-01-03T18:51:49-05:00*
G04 #@! TF.ProjectId,sunlight_pcb,73756e6c-6967-4687-945f-7063622e6b69,rev?*
G04 #@! TF.SameCoordinates,Original*
G04 #@! TF.FileFunction,Soldermask,Top*
G04 #@! TF.FilePolarity,Negative*
%FSLAX46Y46*%
G04 Gerber Fmt 4.6, Leading zero omitted, Abs format (unit mm)*
G04 Created by KiCad (PCBNEW 7.0.7) date 2024-01-03 18:51:49*
%MOMM*%
%LPD*%
G01*
G04 APERTURE LIST*
G04 Aperture macros list*
%AMRoundRect*
0 Rectangle with rounded corners*
0 $1 Rounding radius*
0 $2 $3 $4 $5 $6 $7 $8 $9 X,Y pos of 4 corners*
0 Add a 4 corners polygon primitive as box body*
4,1,4,$2,$3,$4,$5,$6,$7,$8,$9,$2,$3,0*
0 Add four circle primitives for the rounded corners*
1,1,$1+$1,$2,$3*
1,1,$1+$1,$4,$5*
1,1,$1+$1,$6,$7*
1,1,$1+$1,$8,$9*
0 Add four rect primitives between the rounded corners*
20,1,$1+$1,$2,$3,$4,$5,0*
20,1,$1+$1,$4,$5,$6,$7,0*
20,1,$1+$1,$6,$7,$8,$9,0*
20,1,$1+$1,$8,$9,$2,$3,0*%
G04 Aperture macros list end*
%ADD10C,3.200000*%
%ADD11RoundRect,0.250002X-1.699998X-1.699998X1.699998X-1.699998X1.699998X1.699998X-1.699998X1.699998X0*%
%ADD12RoundRect,0.250002X1.699998X1.699998X-1.699998X1.699998X-1.699998X-1.699998X1.699998X-1.699998X0*%
%ADD13RoundRect,0.150000X-0.600000X-0.150000X0.600000X-0.150000X0.600000X0.150000X-0.600000X0.150000X0*%
%ADD14RoundRect,0.250000X-0.550000X1.250000X-0.550000X-1.250000X0.550000X-1.250000X0.550000X1.250000X0*%
%ADD15C,1.803400*%
%ADD16O,1.700000X1.700000*%
%ADD17R,1.700000X1.700000*%
%ADD18RoundRect,0.237500X-0.237500X0.287500X-0.237500X-0.287500X0.237500X-0.287500X0.237500X0.287500X0*%
%ADD19RoundRect,0.237500X0.250000X0.237500X-0.250000X0.237500X-0.250000X-0.237500X0.250000X-0.237500X0*%
%ADD20R,1.000000X1.000000*%
%ADD21RoundRect,0.237500X0.237500X-0.287500X0.237500X0.287500X-0.237500X0.287500X-0.237500X-0.287500X0*%
%ADD22RoundRect,0.237500X0.287500X0.237500X-0.287500X0.237500X-0.287500X-0.237500X0.287500X-0.237500X0*%
%ADD23O,4.704000X2.454000*%
%ADD24O,2.454000X4.704000*%
%ADD25O,2.704000X5.204000*%
%ADD26R,2.489200X2.489200*%
%ADD27RoundRect,0.237500X-0.300000X-0.237500X0.300000X-0.237500X0.300000X0.237500X-0.300000X0.237500X0*%
%ADD28R,0.450000X1.500000*%
%ADD29R,1.500000X0.450000*%
%ADD30R,3.500000X3.500000*%
%ADD31R,1.300000X2.300000*%
%ADD32C,1.500000*%
%ADD33R,2.000000X3.000000*%
G04 APERTURE END LIST*
D10*
X86500000Y-45000000D03*
X86500000Y-135000000D03*
X186500000Y-135000000D03*
X186500000Y-45000000D03*
D11*
X186500000Y-107000000D03*
X186500000Y-97000000D03*
D12*
X186500000Y-83000000D03*
X186500000Y-73000000D03*
D13*
X84500000Y-114770000D03*
X84500000Y-113500000D03*
D14*
X90500000Y-60300000D03*
X90500000Y-64700000D03*
D15*
X176499997Y-130835101D03*
X176499997Y-136735101D03*
X115099997Y-135385101D03*
X115099997Y-129385101D03*
X115099997Y-121935100D03*
X115099997Y-97635101D03*
D14*
X102500000Y-97800000D03*
X102500000Y-102200000D03*
D16*
X84500000Y-110265000D03*
D17*
X84500000Y-107725000D03*
D18*
X106000000Y-86875000D03*
X106000000Y-85125000D03*
D19*
X90912500Y-108500000D03*
X89087500Y-108500000D03*
D20*
X84500000Y-61750000D03*
D21*
X106000000Y-81125000D03*
X106000000Y-82875000D03*
D14*
X102500000Y-106300000D03*
X102500000Y-110700000D03*
D22*
X86375000Y-72000000D03*
X84625000Y-72000000D03*
D23*
X93312500Y-103525000D03*
D24*
X90312500Y-98825000D03*
D25*
X96312500Y-98825000D03*
D20*
X84500000Y-66500000D03*
X84500000Y-57000000D03*
D15*
X176499997Y-76835101D03*
X176499997Y-82735101D03*
X115099997Y-81385101D03*
X115099997Y-75385101D03*
X115099997Y-67935100D03*
X115099997Y-43635101D03*
D14*
X102500000Y-54200000D03*
X102500000Y-49800000D03*
D26*
X105250000Y-67750000D03*
X105250000Y-57250000D03*
X94750000Y-57250000D03*
X94750000Y-67750000D03*
D20*
X90500000Y-114000000D03*
D27*
X90862500Y-106500000D03*
X89137500Y-106500000D03*
D28*
X95500000Y-112330000D03*
X94850000Y-109670000D03*
X96150000Y-109670000D03*
D29*
X105330000Y-71000000D03*
X102670000Y-71650000D03*
X102670000Y-70350000D03*
D30*
X94812015Y-81400000D03*
D31*
X93812015Y-88000000D03*
X91912015Y-88000000D03*
D32*
X90712015Y-82230000D03*
X90712015Y-84770000D03*
X88172015Y-82230000D03*
X88172015Y-84770000D03*
X85632015Y-82230000D03*
X85632015Y-84770000D03*
D33*
X86592015Y-75000000D03*
X89132015Y-75000000D03*
X91672015Y-75000000D03*
X94212015Y-75000000D03*
X96752015Y-75000000D03*
X99292015Y-75000000D03*
X101832015Y-75000000D03*
X101832015Y-92000000D03*
X99292015Y-92000000D03*
X96752015Y-92000000D03*
X94212015Y-92000000D03*
X91672015Y-92000000D03*
X89132015Y-92000000D03*
X86592015Y-92000000D03*
M02*
