G04 #@! TF.GenerationSoftware,KiCad,Pcbnew,7.0.7*
G04 #@! TF.CreationDate,2024-01-03T18:51:49-05:00*
G04 #@! TF.ProjectId,sunlight_pcb,73756e6c-6967-4687-945f-7063622e6b69,rev?*
G04 #@! TF.SameCoordinates,Original*
G04 #@! TF.FileFunction,Legend,Top*
G04 #@! TF.FilePolarity,Positive*
%FSLAX46Y46*%
G04 Gerber Fmt 4.6, Leading zero omitted, Abs format (unit mm)*
G04 Created by KiCad (PCBNEW 7.0.7) date 2024-01-03 18:51:49*
%MOMM*%
%LPD*%
G01*
G04 APERTURE LIST*
G04 Aperture macros list*
%AMRoundRect*
0 Rectangle with rounded corners*
0 $1 Rounding radius*
0 $2 $3 $4 $5 $6 $7 $8 $9 X,Y pos of 4 corners*
0 Add a 4 corners polygon primitive as box body*
4,1,4,$2,$3,$4,$5,$6,$7,$8,$9,$2,$3,0*
0 Add four circle primitives for the rounded corners*
1,1,$1+$1,$2,$3*
1,1,$1+$1,$4,$5*
1,1,$1+$1,$6,$7*
1,1,$1+$1,$8,$9*
0 Add four rect primitives between the rounded corners*
20,1,$1+$1,$2,$3,$4,$5,0*
20,1,$1+$1,$4,$5,$6,$7,0*
20,1,$1+$1,$6,$7,$8,$9,0*
20,1,$1+$1,$8,$9,$2,$3,0*%
G04 Aperture macros list end*
%ADD10C,0.300000*%
%ADD11C,0.150000*%
%ADD12C,0.120000*%
%ADD13C,0.152400*%
%ADD14C,0.400000*%
%ADD15C,0.127000*%
%ADD16C,0.025400*%
%ADD17C,0.254000*%
%ADD18C,3.200000*%
%ADD19RoundRect,0.250002X-1.699998X-1.699998X1.699998X-1.699998X1.699998X1.699998X-1.699998X1.699998X0*%
%ADD20RoundRect,0.250002X1.699998X1.699998X-1.699998X1.699998X-1.699998X-1.699998X1.699998X-1.699998X0*%
%ADD21RoundRect,0.150000X-0.600000X-0.150000X0.600000X-0.150000X0.600000X0.150000X-0.600000X0.150000X0*%
%ADD22RoundRect,0.250000X-0.550000X1.250000X-0.550000X-1.250000X0.550000X-1.250000X0.550000X1.250000X0*%
%ADD23C,1.803400*%
%ADD24O,1.700000X1.700000*%
%ADD25R,1.700000X1.700000*%
%ADD26RoundRect,0.237500X-0.237500X0.287500X-0.237500X-0.287500X0.237500X-0.287500X0.237500X0.287500X0*%
%ADD27RoundRect,0.237500X0.250000X0.237500X-0.250000X0.237500X-0.250000X-0.237500X0.250000X-0.237500X0*%
%ADD28R,1.000000X1.000000*%
%ADD29RoundRect,0.237500X0.237500X-0.287500X0.237500X0.287500X-0.237500X0.287500X-0.237500X-0.287500X0*%
%ADD30RoundRect,0.237500X0.287500X0.237500X-0.287500X0.237500X-0.287500X-0.237500X0.287500X-0.237500X0*%
%ADD31O,4.704000X2.454000*%
%ADD32O,2.454000X4.704000*%
%ADD33O,2.704000X5.204000*%
%ADD34R,2.489200X2.489200*%
%ADD35RoundRect,0.237500X-0.300000X-0.237500X0.300000X-0.237500X0.300000X0.237500X-0.300000X0.237500X0*%
%ADD36R,0.450000X1.500000*%
%ADD37R,1.500000X0.450000*%
%ADD38R,3.500000X3.500000*%
%ADD39R,1.300000X2.300000*%
%ADD40C,1.500000*%
%ADD41R,2.000000X3.000000*%
G04 APERTURE END LIST*
D10*
X83054510Y-68515114D02*
X83268796Y-68586542D01*
X83268796Y-68586542D02*
X83340225Y-68657971D01*
X83340225Y-68657971D02*
X83411653Y-68800828D01*
X83411653Y-68800828D02*
X83411653Y-69015114D01*
X83411653Y-69015114D02*
X83340225Y-69157971D01*
X83340225Y-69157971D02*
X83268796Y-69229400D01*
X83268796Y-69229400D02*
X83125939Y-69300828D01*
X83125939Y-69300828D02*
X82554510Y-69300828D01*
X82554510Y-69300828D02*
X82554510Y-67800828D01*
X82554510Y-67800828D02*
X83054510Y-67800828D01*
X83054510Y-67800828D02*
X83197368Y-67872257D01*
X83197368Y-67872257D02*
X83268796Y-67943685D01*
X83268796Y-67943685D02*
X83340225Y-68086542D01*
X83340225Y-68086542D02*
X83340225Y-68229400D01*
X83340225Y-68229400D02*
X83268796Y-68372257D01*
X83268796Y-68372257D02*
X83197368Y-68443685D01*
X83197368Y-68443685D02*
X83054510Y-68515114D01*
X83054510Y-68515114D02*
X82554510Y-68515114D01*
X84768796Y-69300828D02*
X84054510Y-69300828D01*
X84054510Y-69300828D02*
X84054510Y-67800828D01*
X85268796Y-67800828D02*
X85268796Y-69015114D01*
X85268796Y-69015114D02*
X85340225Y-69157971D01*
X85340225Y-69157971D02*
X85411654Y-69229400D01*
X85411654Y-69229400D02*
X85554511Y-69300828D01*
X85554511Y-69300828D02*
X85840225Y-69300828D01*
X85840225Y-69300828D02*
X85983082Y-69229400D01*
X85983082Y-69229400D02*
X86054511Y-69157971D01*
X86054511Y-69157971D02*
X86125939Y-69015114D01*
X86125939Y-69015114D02*
X86125939Y-67800828D01*
X86840225Y-68515114D02*
X87340225Y-68515114D01*
X87554511Y-69300828D02*
X86840225Y-69300828D01*
X86840225Y-69300828D02*
X86840225Y-67800828D01*
X86840225Y-67800828D02*
X87554511Y-67800828D01*
X83340225Y-62872257D02*
X83197368Y-62800828D01*
X83197368Y-62800828D02*
X82983082Y-62800828D01*
X82983082Y-62800828D02*
X82768796Y-62872257D01*
X82768796Y-62872257D02*
X82625939Y-63015114D01*
X82625939Y-63015114D02*
X82554510Y-63157971D01*
X82554510Y-63157971D02*
X82483082Y-63443685D01*
X82483082Y-63443685D02*
X82483082Y-63657971D01*
X82483082Y-63657971D02*
X82554510Y-63943685D01*
X82554510Y-63943685D02*
X82625939Y-64086542D01*
X82625939Y-64086542D02*
X82768796Y-64229400D01*
X82768796Y-64229400D02*
X82983082Y-64300828D01*
X82983082Y-64300828D02*
X83125939Y-64300828D01*
X83125939Y-64300828D02*
X83340225Y-64229400D01*
X83340225Y-64229400D02*
X83411653Y-64157971D01*
X83411653Y-64157971D02*
X83411653Y-63657971D01*
X83411653Y-63657971D02*
X83125939Y-63657971D01*
X84054510Y-64300828D02*
X84054510Y-62800828D01*
X84054510Y-62800828D02*
X84911653Y-64300828D01*
X84911653Y-64300828D02*
X84911653Y-62800828D01*
X85625939Y-64300828D02*
X85625939Y-62800828D01*
X85625939Y-62800828D02*
X85983082Y-62800828D01*
X85983082Y-62800828D02*
X86197368Y-62872257D01*
X86197368Y-62872257D02*
X86340225Y-63015114D01*
X86340225Y-63015114D02*
X86411654Y-63157971D01*
X86411654Y-63157971D02*
X86483082Y-63443685D01*
X86483082Y-63443685D02*
X86483082Y-63657971D01*
X86483082Y-63657971D02*
X86411654Y-63943685D01*
X86411654Y-63943685D02*
X86340225Y-64086542D01*
X86340225Y-64086542D02*
X86197368Y-64229400D01*
X86197368Y-64229400D02*
X85983082Y-64300828D01*
X85983082Y-64300828D02*
X85625939Y-64300828D01*
X83590225Y-104622257D02*
X83447368Y-104550828D01*
X83447368Y-104550828D02*
X83233082Y-104550828D01*
X83233082Y-104550828D02*
X83018796Y-104622257D01*
X83018796Y-104622257D02*
X82875939Y-104765114D01*
X82875939Y-104765114D02*
X82804510Y-104907971D01*
X82804510Y-104907971D02*
X82733082Y-105193685D01*
X82733082Y-105193685D02*
X82733082Y-105407971D01*
X82733082Y-105407971D02*
X82804510Y-105693685D01*
X82804510Y-105693685D02*
X82875939Y-105836542D01*
X82875939Y-105836542D02*
X83018796Y-105979400D01*
X83018796Y-105979400D02*
X83233082Y-106050828D01*
X83233082Y-106050828D02*
X83375939Y-106050828D01*
X83375939Y-106050828D02*
X83590225Y-105979400D01*
X83590225Y-105979400D02*
X83661653Y-105907971D01*
X83661653Y-105907971D02*
X83661653Y-105407971D01*
X83661653Y-105407971D02*
X83375939Y-105407971D01*
X84304510Y-106050828D02*
X84304510Y-104550828D01*
X84304510Y-104550828D02*
X84875939Y-104550828D01*
X84875939Y-104550828D02*
X85018796Y-104622257D01*
X85018796Y-104622257D02*
X85090225Y-104693685D01*
X85090225Y-104693685D02*
X85161653Y-104836542D01*
X85161653Y-104836542D02*
X85161653Y-105050828D01*
X85161653Y-105050828D02*
X85090225Y-105193685D01*
X85090225Y-105193685D02*
X85018796Y-105265114D01*
X85018796Y-105265114D02*
X84875939Y-105336542D01*
X84875939Y-105336542D02*
X84304510Y-105336542D01*
X85804510Y-106050828D02*
X85804510Y-104550828D01*
X86804511Y-104550828D02*
X87090225Y-104550828D01*
X87090225Y-104550828D02*
X87233082Y-104622257D01*
X87233082Y-104622257D02*
X87375939Y-104765114D01*
X87375939Y-104765114D02*
X87447368Y-105050828D01*
X87447368Y-105050828D02*
X87447368Y-105550828D01*
X87447368Y-105550828D02*
X87375939Y-105836542D01*
X87375939Y-105836542D02*
X87233082Y-105979400D01*
X87233082Y-105979400D02*
X87090225Y-106050828D01*
X87090225Y-106050828D02*
X86804511Y-106050828D01*
X86804511Y-106050828D02*
X86661654Y-105979400D01*
X86661654Y-105979400D02*
X86518796Y-105836542D01*
X86518796Y-105836542D02*
X86447368Y-105550828D01*
X86447368Y-105550828D02*
X86447368Y-105050828D01*
X86447368Y-105050828D02*
X86518796Y-104765114D01*
X86518796Y-104765114D02*
X86661654Y-104622257D01*
X86661654Y-104622257D02*
X86804511Y-104550828D01*
X84018796Y-58050828D02*
X83304510Y-58050828D01*
X83304510Y-58050828D02*
X83233082Y-58765114D01*
X83233082Y-58765114D02*
X83304510Y-58693685D01*
X83304510Y-58693685D02*
X83447368Y-58622257D01*
X83447368Y-58622257D02*
X83804510Y-58622257D01*
X83804510Y-58622257D02*
X83947368Y-58693685D01*
X83947368Y-58693685D02*
X84018796Y-58765114D01*
X84018796Y-58765114D02*
X84090225Y-58907971D01*
X84090225Y-58907971D02*
X84090225Y-59265114D01*
X84090225Y-59265114D02*
X84018796Y-59407971D01*
X84018796Y-59407971D02*
X83947368Y-59479400D01*
X83947368Y-59479400D02*
X83804510Y-59550828D01*
X83804510Y-59550828D02*
X83447368Y-59550828D01*
X83447368Y-59550828D02*
X83304510Y-59479400D01*
X83304510Y-59479400D02*
X83233082Y-59407971D01*
X84518796Y-58050828D02*
X85018796Y-59550828D01*
X85018796Y-59550828D02*
X85518796Y-58050828D01*
X83054510Y-117385828D02*
X83054510Y-115885828D01*
X83054510Y-115885828D02*
X83911653Y-117385828D01*
X83911653Y-117385828D02*
X83911653Y-115885828D01*
X84411654Y-115885828D02*
X85268797Y-115885828D01*
X84840225Y-117385828D02*
X84840225Y-115885828D01*
X86625939Y-117242971D02*
X86554511Y-117314400D01*
X86554511Y-117314400D02*
X86340225Y-117385828D01*
X86340225Y-117385828D02*
X86197368Y-117385828D01*
X86197368Y-117385828D02*
X85983082Y-117314400D01*
X85983082Y-117314400D02*
X85840225Y-117171542D01*
X85840225Y-117171542D02*
X85768796Y-117028685D01*
X85768796Y-117028685D02*
X85697368Y-116742971D01*
X85697368Y-116742971D02*
X85697368Y-116528685D01*
X85697368Y-116528685D02*
X85768796Y-116242971D01*
X85768796Y-116242971D02*
X85840225Y-116100114D01*
X85840225Y-116100114D02*
X85983082Y-115957257D01*
X85983082Y-115957257D02*
X86197368Y-115885828D01*
X86197368Y-115885828D02*
X86340225Y-115885828D01*
X86340225Y-115885828D02*
X86554511Y-115957257D01*
X86554511Y-115957257D02*
X86625939Y-116028685D01*
X83840225Y-119800828D02*
X82983082Y-119800828D01*
X83411653Y-119800828D02*
X83411653Y-118300828D01*
X83411653Y-118300828D02*
X83268796Y-118515114D01*
X83268796Y-118515114D02*
X83125939Y-118657971D01*
X83125939Y-118657971D02*
X82983082Y-118729400D01*
X84768796Y-118300828D02*
X84911653Y-118300828D01*
X84911653Y-118300828D02*
X85054510Y-118372257D01*
X85054510Y-118372257D02*
X85125939Y-118443685D01*
X85125939Y-118443685D02*
X85197367Y-118586542D01*
X85197367Y-118586542D02*
X85268796Y-118872257D01*
X85268796Y-118872257D02*
X85268796Y-119229400D01*
X85268796Y-119229400D02*
X85197367Y-119515114D01*
X85197367Y-119515114D02*
X85125939Y-119657971D01*
X85125939Y-119657971D02*
X85054510Y-119729400D01*
X85054510Y-119729400D02*
X84911653Y-119800828D01*
X84911653Y-119800828D02*
X84768796Y-119800828D01*
X84768796Y-119800828D02*
X84625939Y-119729400D01*
X84625939Y-119729400D02*
X84554510Y-119657971D01*
X84554510Y-119657971D02*
X84483081Y-119515114D01*
X84483081Y-119515114D02*
X84411653Y-119229400D01*
X84411653Y-119229400D02*
X84411653Y-118872257D01*
X84411653Y-118872257D02*
X84483081Y-118586542D01*
X84483081Y-118586542D02*
X84554510Y-118443685D01*
X84554510Y-118443685D02*
X84625939Y-118372257D01*
X84625939Y-118372257D02*
X84768796Y-118300828D01*
X85911652Y-119800828D02*
X85911652Y-118300828D01*
X86054510Y-119229400D02*
X86483081Y-119800828D01*
X86483081Y-118800828D02*
X85911652Y-119372257D01*
X89840225Y-115800828D02*
X90125939Y-115800828D01*
X90125939Y-115800828D02*
X90268796Y-115872257D01*
X90268796Y-115872257D02*
X90411653Y-116015114D01*
X90411653Y-116015114D02*
X90483082Y-116300828D01*
X90483082Y-116300828D02*
X90483082Y-116800828D01*
X90483082Y-116800828D02*
X90411653Y-117086542D01*
X90411653Y-117086542D02*
X90268796Y-117229400D01*
X90268796Y-117229400D02*
X90125939Y-117300828D01*
X90125939Y-117300828D02*
X89840225Y-117300828D01*
X89840225Y-117300828D02*
X89697368Y-117229400D01*
X89697368Y-117229400D02*
X89554510Y-117086542D01*
X89554510Y-117086542D02*
X89483082Y-116800828D01*
X89483082Y-116800828D02*
X89483082Y-116300828D01*
X89483082Y-116300828D02*
X89554510Y-116015114D01*
X89554510Y-116015114D02*
X89697368Y-115872257D01*
X89697368Y-115872257D02*
X89840225Y-115800828D01*
X91983082Y-117300828D02*
X91483082Y-116586542D01*
X91125939Y-117300828D02*
X91125939Y-115800828D01*
X91125939Y-115800828D02*
X91697368Y-115800828D01*
X91697368Y-115800828D02*
X91840225Y-115872257D01*
X91840225Y-115872257D02*
X91911654Y-115943685D01*
X91911654Y-115943685D02*
X91983082Y-116086542D01*
X91983082Y-116086542D02*
X91983082Y-116300828D01*
X91983082Y-116300828D02*
X91911654Y-116443685D01*
X91911654Y-116443685D02*
X91840225Y-116515114D01*
X91840225Y-116515114D02*
X91697368Y-116586542D01*
X91697368Y-116586542D02*
X91125939Y-116586542D01*
X92554511Y-116872257D02*
X93268797Y-116872257D01*
X92411654Y-117300828D02*
X92911654Y-115800828D01*
X92911654Y-115800828D02*
X93411654Y-117300828D01*
X93911653Y-117300828D02*
X93911653Y-115800828D01*
X93911653Y-115800828D02*
X94768796Y-117300828D01*
X94768796Y-117300828D02*
X94768796Y-115800828D01*
X96268797Y-115872257D02*
X96125940Y-115800828D01*
X96125940Y-115800828D02*
X95911654Y-115800828D01*
X95911654Y-115800828D02*
X95697368Y-115872257D01*
X95697368Y-115872257D02*
X95554511Y-116015114D01*
X95554511Y-116015114D02*
X95483082Y-116157971D01*
X95483082Y-116157971D02*
X95411654Y-116443685D01*
X95411654Y-116443685D02*
X95411654Y-116657971D01*
X95411654Y-116657971D02*
X95483082Y-116943685D01*
X95483082Y-116943685D02*
X95554511Y-117086542D01*
X95554511Y-117086542D02*
X95697368Y-117229400D01*
X95697368Y-117229400D02*
X95911654Y-117300828D01*
X95911654Y-117300828D02*
X96054511Y-117300828D01*
X96054511Y-117300828D02*
X96268797Y-117229400D01*
X96268797Y-117229400D02*
X96340225Y-117157971D01*
X96340225Y-117157971D02*
X96340225Y-116657971D01*
X96340225Y-116657971D02*
X96054511Y-116657971D01*
X96983082Y-116515114D02*
X97483082Y-116515114D01*
X97697368Y-117300828D02*
X96983082Y-117300828D01*
X96983082Y-117300828D02*
X96983082Y-115800828D01*
X96983082Y-115800828D02*
X97697368Y-115800828D01*
D11*
X186166666Y-103304819D02*
X186166666Y-104019104D01*
X186166666Y-104019104D02*
X186119047Y-104161961D01*
X186119047Y-104161961D02*
X186023809Y-104257200D01*
X186023809Y-104257200D02*
X185880952Y-104304819D01*
X185880952Y-104304819D02*
X185785714Y-104304819D01*
X187071428Y-103638152D02*
X187071428Y-104304819D01*
X186833333Y-103257200D02*
X186595238Y-103971485D01*
X186595238Y-103971485D02*
X187214285Y-103971485D01*
X186166666Y-93304819D02*
X186166666Y-94019104D01*
X186166666Y-94019104D02*
X186119047Y-94161961D01*
X186119047Y-94161961D02*
X186023809Y-94257200D01*
X186023809Y-94257200D02*
X185880952Y-94304819D01*
X185880952Y-94304819D02*
X185785714Y-94304819D01*
X186547619Y-93304819D02*
X187166666Y-93304819D01*
X187166666Y-93304819D02*
X186833333Y-93685771D01*
X186833333Y-93685771D02*
X186976190Y-93685771D01*
X186976190Y-93685771D02*
X187071428Y-93733390D01*
X187071428Y-93733390D02*
X187119047Y-93781009D01*
X187119047Y-93781009D02*
X187166666Y-93876247D01*
X187166666Y-93876247D02*
X187166666Y-94114342D01*
X187166666Y-94114342D02*
X187119047Y-94209580D01*
X187119047Y-94209580D02*
X187071428Y-94257200D01*
X187071428Y-94257200D02*
X186976190Y-94304819D01*
X186976190Y-94304819D02*
X186690476Y-94304819D01*
X186690476Y-94304819D02*
X186595238Y-94257200D01*
X186595238Y-94257200D02*
X186547619Y-94209580D01*
X186166666Y-85604819D02*
X186166666Y-86319104D01*
X186166666Y-86319104D02*
X186119047Y-86461961D01*
X186119047Y-86461961D02*
X186023809Y-86557200D01*
X186023809Y-86557200D02*
X185880952Y-86604819D01*
X185880952Y-86604819D02*
X185785714Y-86604819D01*
X186595238Y-85700057D02*
X186642857Y-85652438D01*
X186642857Y-85652438D02*
X186738095Y-85604819D01*
X186738095Y-85604819D02*
X186976190Y-85604819D01*
X186976190Y-85604819D02*
X187071428Y-85652438D01*
X187071428Y-85652438D02*
X187119047Y-85700057D01*
X187119047Y-85700057D02*
X187166666Y-85795295D01*
X187166666Y-85795295D02*
X187166666Y-85890533D01*
X187166666Y-85890533D02*
X187119047Y-86033390D01*
X187119047Y-86033390D02*
X186547619Y-86604819D01*
X186547619Y-86604819D02*
X187166666Y-86604819D01*
X186166666Y-75604819D02*
X186166666Y-76319104D01*
X186166666Y-76319104D02*
X186119047Y-76461961D01*
X186119047Y-76461961D02*
X186023809Y-76557200D01*
X186023809Y-76557200D02*
X185880952Y-76604819D01*
X185880952Y-76604819D02*
X185785714Y-76604819D01*
X187166666Y-76604819D02*
X186595238Y-76604819D01*
X186880952Y-76604819D02*
X186880952Y-75604819D01*
X186880952Y-75604819D02*
X186785714Y-75747676D01*
X186785714Y-75747676D02*
X186690476Y-75842914D01*
X186690476Y-75842914D02*
X186595238Y-75890533D01*
X90333333Y-57859580D02*
X90285714Y-57907200D01*
X90285714Y-57907200D02*
X90142857Y-57954819D01*
X90142857Y-57954819D02*
X90047619Y-57954819D01*
X90047619Y-57954819D02*
X89904762Y-57907200D01*
X89904762Y-57907200D02*
X89809524Y-57811961D01*
X89809524Y-57811961D02*
X89761905Y-57716723D01*
X89761905Y-57716723D02*
X89714286Y-57526247D01*
X89714286Y-57526247D02*
X89714286Y-57383390D01*
X89714286Y-57383390D02*
X89761905Y-57192914D01*
X89761905Y-57192914D02*
X89809524Y-57097676D01*
X89809524Y-57097676D02*
X89904762Y-57002438D01*
X89904762Y-57002438D02*
X90047619Y-56954819D01*
X90047619Y-56954819D02*
X90142857Y-56954819D01*
X90142857Y-56954819D02*
X90285714Y-57002438D01*
X90285714Y-57002438D02*
X90333333Y-57050057D01*
X90714286Y-57050057D02*
X90761905Y-57002438D01*
X90761905Y-57002438D02*
X90857143Y-56954819D01*
X90857143Y-56954819D02*
X91095238Y-56954819D01*
X91095238Y-56954819D02*
X91190476Y-57002438D01*
X91190476Y-57002438D02*
X91238095Y-57050057D01*
X91238095Y-57050057D02*
X91285714Y-57145295D01*
X91285714Y-57145295D02*
X91285714Y-57240533D01*
X91285714Y-57240533D02*
X91238095Y-57383390D01*
X91238095Y-57383390D02*
X90666667Y-57954819D01*
X90666667Y-57954819D02*
X91285714Y-57954819D01*
X144238095Y-116454819D02*
X144238095Y-117264342D01*
X144238095Y-117264342D02*
X144285714Y-117359580D01*
X144285714Y-117359580D02*
X144333333Y-117407200D01*
X144333333Y-117407200D02*
X144428571Y-117454819D01*
X144428571Y-117454819D02*
X144619047Y-117454819D01*
X144619047Y-117454819D02*
X144714285Y-117407200D01*
X144714285Y-117407200D02*
X144761904Y-117359580D01*
X144761904Y-117359580D02*
X144809523Y-117264342D01*
X144809523Y-117264342D02*
X144809523Y-116454819D01*
X145238095Y-116550057D02*
X145285714Y-116502438D01*
X145285714Y-116502438D02*
X145380952Y-116454819D01*
X145380952Y-116454819D02*
X145619047Y-116454819D01*
X145619047Y-116454819D02*
X145714285Y-116502438D01*
X145714285Y-116502438D02*
X145761904Y-116550057D01*
X145761904Y-116550057D02*
X145809523Y-116645295D01*
X145809523Y-116645295D02*
X145809523Y-116740533D01*
X145809523Y-116740533D02*
X145761904Y-116883390D01*
X145761904Y-116883390D02*
X145190476Y-117454819D01*
X145190476Y-117454819D02*
X145809523Y-117454819D01*
X100333333Y-103859580D02*
X100285714Y-103907200D01*
X100285714Y-103907200D02*
X100142857Y-103954819D01*
X100142857Y-103954819D02*
X100047619Y-103954819D01*
X100047619Y-103954819D02*
X99904762Y-103907200D01*
X99904762Y-103907200D02*
X99809524Y-103811961D01*
X99809524Y-103811961D02*
X99761905Y-103716723D01*
X99761905Y-103716723D02*
X99714286Y-103526247D01*
X99714286Y-103526247D02*
X99714286Y-103383390D01*
X99714286Y-103383390D02*
X99761905Y-103192914D01*
X99761905Y-103192914D02*
X99809524Y-103097676D01*
X99809524Y-103097676D02*
X99904762Y-103002438D01*
X99904762Y-103002438D02*
X100047619Y-102954819D01*
X100047619Y-102954819D02*
X100142857Y-102954819D01*
X100142857Y-102954819D02*
X100285714Y-103002438D01*
X100285714Y-103002438D02*
X100333333Y-103050057D01*
X100666667Y-102954819D02*
X101285714Y-102954819D01*
X101285714Y-102954819D02*
X100952381Y-103335771D01*
X100952381Y-103335771D02*
X101095238Y-103335771D01*
X101095238Y-103335771D02*
X101190476Y-103383390D01*
X101190476Y-103383390D02*
X101238095Y-103431009D01*
X101238095Y-103431009D02*
X101285714Y-103526247D01*
X101285714Y-103526247D02*
X101285714Y-103764342D01*
X101285714Y-103764342D02*
X101238095Y-103859580D01*
X101238095Y-103859580D02*
X101190476Y-103907200D01*
X101190476Y-103907200D02*
X101095238Y-103954819D01*
X101095238Y-103954819D02*
X100809524Y-103954819D01*
X100809524Y-103954819D02*
X100714286Y-103907200D01*
X100714286Y-103907200D02*
X100666667Y-103859580D01*
X105833333Y-88954819D02*
X105500000Y-88478628D01*
X105261905Y-88954819D02*
X105261905Y-87954819D01*
X105261905Y-87954819D02*
X105642857Y-87954819D01*
X105642857Y-87954819D02*
X105738095Y-88002438D01*
X105738095Y-88002438D02*
X105785714Y-88050057D01*
X105785714Y-88050057D02*
X105833333Y-88145295D01*
X105833333Y-88145295D02*
X105833333Y-88288152D01*
X105833333Y-88288152D02*
X105785714Y-88383390D01*
X105785714Y-88383390D02*
X105738095Y-88431009D01*
X105738095Y-88431009D02*
X105642857Y-88478628D01*
X105642857Y-88478628D02*
X105261905Y-88478628D01*
X106214286Y-88050057D02*
X106261905Y-88002438D01*
X106261905Y-88002438D02*
X106357143Y-87954819D01*
X106357143Y-87954819D02*
X106595238Y-87954819D01*
X106595238Y-87954819D02*
X106690476Y-88002438D01*
X106690476Y-88002438D02*
X106738095Y-88050057D01*
X106738095Y-88050057D02*
X106785714Y-88145295D01*
X106785714Y-88145295D02*
X106785714Y-88240533D01*
X106785714Y-88240533D02*
X106738095Y-88383390D01*
X106738095Y-88383390D02*
X106166667Y-88954819D01*
X106166667Y-88954819D02*
X106785714Y-88954819D01*
X92333333Y-108954819D02*
X92000000Y-108478628D01*
X91761905Y-108954819D02*
X91761905Y-107954819D01*
X91761905Y-107954819D02*
X92142857Y-107954819D01*
X92142857Y-107954819D02*
X92238095Y-108002438D01*
X92238095Y-108002438D02*
X92285714Y-108050057D01*
X92285714Y-108050057D02*
X92333333Y-108145295D01*
X92333333Y-108145295D02*
X92333333Y-108288152D01*
X92333333Y-108288152D02*
X92285714Y-108383390D01*
X92285714Y-108383390D02*
X92238095Y-108431009D01*
X92238095Y-108431009D02*
X92142857Y-108478628D01*
X92142857Y-108478628D02*
X91761905Y-108478628D01*
X93285714Y-108954819D02*
X92714286Y-108954819D01*
X93000000Y-108954819D02*
X93000000Y-107954819D01*
X93000000Y-107954819D02*
X92904762Y-108097676D01*
X92904762Y-108097676D02*
X92809524Y-108192914D01*
X92809524Y-108192914D02*
X92714286Y-108240533D01*
X105833333Y-79954819D02*
X105500000Y-79478628D01*
X105261905Y-79954819D02*
X105261905Y-78954819D01*
X105261905Y-78954819D02*
X105642857Y-78954819D01*
X105642857Y-78954819D02*
X105738095Y-79002438D01*
X105738095Y-79002438D02*
X105785714Y-79050057D01*
X105785714Y-79050057D02*
X105833333Y-79145295D01*
X105833333Y-79145295D02*
X105833333Y-79288152D01*
X105833333Y-79288152D02*
X105785714Y-79383390D01*
X105785714Y-79383390D02*
X105738095Y-79431009D01*
X105738095Y-79431009D02*
X105642857Y-79478628D01*
X105642857Y-79478628D02*
X105261905Y-79478628D01*
X106166667Y-78954819D02*
X106785714Y-78954819D01*
X106785714Y-78954819D02*
X106452381Y-79335771D01*
X106452381Y-79335771D02*
X106595238Y-79335771D01*
X106595238Y-79335771D02*
X106690476Y-79383390D01*
X106690476Y-79383390D02*
X106738095Y-79431009D01*
X106738095Y-79431009D02*
X106785714Y-79526247D01*
X106785714Y-79526247D02*
X106785714Y-79764342D01*
X106785714Y-79764342D02*
X106738095Y-79859580D01*
X106738095Y-79859580D02*
X106690476Y-79907200D01*
X106690476Y-79907200D02*
X106595238Y-79954819D01*
X106595238Y-79954819D02*
X106309524Y-79954819D01*
X106309524Y-79954819D02*
X106214286Y-79907200D01*
X106214286Y-79907200D02*
X106166667Y-79859580D01*
X100333333Y-112359580D02*
X100285714Y-112407200D01*
X100285714Y-112407200D02*
X100142857Y-112454819D01*
X100142857Y-112454819D02*
X100047619Y-112454819D01*
X100047619Y-112454819D02*
X99904762Y-112407200D01*
X99904762Y-112407200D02*
X99809524Y-112311961D01*
X99809524Y-112311961D02*
X99761905Y-112216723D01*
X99761905Y-112216723D02*
X99714286Y-112026247D01*
X99714286Y-112026247D02*
X99714286Y-111883390D01*
X99714286Y-111883390D02*
X99761905Y-111692914D01*
X99761905Y-111692914D02*
X99809524Y-111597676D01*
X99809524Y-111597676D02*
X99904762Y-111502438D01*
X99904762Y-111502438D02*
X100047619Y-111454819D01*
X100047619Y-111454819D02*
X100142857Y-111454819D01*
X100142857Y-111454819D02*
X100285714Y-111502438D01*
X100285714Y-111502438D02*
X100333333Y-111550057D01*
X101190476Y-111454819D02*
X101000000Y-111454819D01*
X101000000Y-111454819D02*
X100904762Y-111502438D01*
X100904762Y-111502438D02*
X100857143Y-111550057D01*
X100857143Y-111550057D02*
X100761905Y-111692914D01*
X100761905Y-111692914D02*
X100714286Y-111883390D01*
X100714286Y-111883390D02*
X100714286Y-112264342D01*
X100714286Y-112264342D02*
X100761905Y-112359580D01*
X100761905Y-112359580D02*
X100809524Y-112407200D01*
X100809524Y-112407200D02*
X100904762Y-112454819D01*
X100904762Y-112454819D02*
X101095238Y-112454819D01*
X101095238Y-112454819D02*
X101190476Y-112407200D01*
X101190476Y-112407200D02*
X101238095Y-112359580D01*
X101238095Y-112359580D02*
X101285714Y-112264342D01*
X101285714Y-112264342D02*
X101285714Y-112026247D01*
X101285714Y-112026247D02*
X101238095Y-111931009D01*
X101238095Y-111931009D02*
X101190476Y-111883390D01*
X101190476Y-111883390D02*
X101095238Y-111835771D01*
X101095238Y-111835771D02*
X100904762Y-111835771D01*
X100904762Y-111835771D02*
X100809524Y-111883390D01*
X100809524Y-111883390D02*
X100761905Y-111931009D01*
X100761905Y-111931009D02*
X100714286Y-112026247D01*
X87761905Y-72454819D02*
X87761905Y-71454819D01*
X87761905Y-71454819D02*
X88000000Y-71454819D01*
X88000000Y-71454819D02*
X88142857Y-71502438D01*
X88142857Y-71502438D02*
X88238095Y-71597676D01*
X88238095Y-71597676D02*
X88285714Y-71692914D01*
X88285714Y-71692914D02*
X88333333Y-71883390D01*
X88333333Y-71883390D02*
X88333333Y-72026247D01*
X88333333Y-72026247D02*
X88285714Y-72216723D01*
X88285714Y-72216723D02*
X88238095Y-72311961D01*
X88238095Y-72311961D02*
X88142857Y-72407200D01*
X88142857Y-72407200D02*
X88000000Y-72454819D01*
X88000000Y-72454819D02*
X87761905Y-72454819D01*
X89285714Y-72454819D02*
X88714286Y-72454819D01*
X89000000Y-72454819D02*
X89000000Y-71454819D01*
X89000000Y-71454819D02*
X88904762Y-71597676D01*
X88904762Y-71597676D02*
X88809524Y-71692914D01*
X88809524Y-71692914D02*
X88714286Y-71740533D01*
X144238095Y-62454819D02*
X144238095Y-63264342D01*
X144238095Y-63264342D02*
X144285714Y-63359580D01*
X144285714Y-63359580D02*
X144333333Y-63407200D01*
X144333333Y-63407200D02*
X144428571Y-63454819D01*
X144428571Y-63454819D02*
X144619047Y-63454819D01*
X144619047Y-63454819D02*
X144714285Y-63407200D01*
X144714285Y-63407200D02*
X144761904Y-63359580D01*
X144761904Y-63359580D02*
X144809523Y-63264342D01*
X144809523Y-63264342D02*
X144809523Y-62454819D01*
X145809523Y-63454819D02*
X145238095Y-63454819D01*
X145523809Y-63454819D02*
X145523809Y-62454819D01*
X145523809Y-62454819D02*
X145428571Y-62597676D01*
X145428571Y-62597676D02*
X145333333Y-62692914D01*
X145333333Y-62692914D02*
X145238095Y-62740533D01*
X102333333Y-47359580D02*
X102285714Y-47407200D01*
X102285714Y-47407200D02*
X102142857Y-47454819D01*
X102142857Y-47454819D02*
X102047619Y-47454819D01*
X102047619Y-47454819D02*
X101904762Y-47407200D01*
X101904762Y-47407200D02*
X101809524Y-47311961D01*
X101809524Y-47311961D02*
X101761905Y-47216723D01*
X101761905Y-47216723D02*
X101714286Y-47026247D01*
X101714286Y-47026247D02*
X101714286Y-46883390D01*
X101714286Y-46883390D02*
X101761905Y-46692914D01*
X101761905Y-46692914D02*
X101809524Y-46597676D01*
X101809524Y-46597676D02*
X101904762Y-46502438D01*
X101904762Y-46502438D02*
X102047619Y-46454819D01*
X102047619Y-46454819D02*
X102142857Y-46454819D01*
X102142857Y-46454819D02*
X102285714Y-46502438D01*
X102285714Y-46502438D02*
X102333333Y-46550057D01*
X103238095Y-46454819D02*
X102761905Y-46454819D01*
X102761905Y-46454819D02*
X102714286Y-46931009D01*
X102714286Y-46931009D02*
X102761905Y-46883390D01*
X102761905Y-46883390D02*
X102857143Y-46835771D01*
X102857143Y-46835771D02*
X103095238Y-46835771D01*
X103095238Y-46835771D02*
X103190476Y-46883390D01*
X103190476Y-46883390D02*
X103238095Y-46931009D01*
X103238095Y-46931009D02*
X103285714Y-47026247D01*
X103285714Y-47026247D02*
X103285714Y-47264342D01*
X103285714Y-47264342D02*
X103238095Y-47359580D01*
X103238095Y-47359580D02*
X103190476Y-47407200D01*
X103190476Y-47407200D02*
X103095238Y-47454819D01*
X103095238Y-47454819D02*
X102857143Y-47454819D01*
X102857143Y-47454819D02*
X102761905Y-47407200D01*
X102761905Y-47407200D02*
X102714286Y-47359580D01*
X106860000Y-65364819D02*
X106860000Y-65602914D01*
X106621905Y-65507676D02*
X106860000Y-65602914D01*
X106860000Y-65602914D02*
X107098095Y-65507676D01*
X106717143Y-65793390D02*
X106860000Y-65602914D01*
X106860000Y-65602914D02*
X107002857Y-65793390D01*
X92333333Y-106859580D02*
X92285714Y-106907200D01*
X92285714Y-106907200D02*
X92142857Y-106954819D01*
X92142857Y-106954819D02*
X92047619Y-106954819D01*
X92047619Y-106954819D02*
X91904762Y-106907200D01*
X91904762Y-106907200D02*
X91809524Y-106811961D01*
X91809524Y-106811961D02*
X91761905Y-106716723D01*
X91761905Y-106716723D02*
X91714286Y-106526247D01*
X91714286Y-106526247D02*
X91714286Y-106383390D01*
X91714286Y-106383390D02*
X91761905Y-106192914D01*
X91761905Y-106192914D02*
X91809524Y-106097676D01*
X91809524Y-106097676D02*
X91904762Y-106002438D01*
X91904762Y-106002438D02*
X92047619Y-105954819D01*
X92047619Y-105954819D02*
X92142857Y-105954819D01*
X92142857Y-105954819D02*
X92285714Y-106002438D01*
X92285714Y-106002438D02*
X92333333Y-106050057D01*
X93285714Y-106954819D02*
X92714286Y-106954819D01*
X93000000Y-106954819D02*
X93000000Y-105954819D01*
X93000000Y-105954819D02*
X92904762Y-106097676D01*
X92904762Y-106097676D02*
X92809524Y-106192914D01*
X92809524Y-106192914D02*
X92714286Y-106240533D01*
X95404761Y-108550057D02*
X95309523Y-108502438D01*
X95309523Y-108502438D02*
X95214285Y-108407200D01*
X95214285Y-108407200D02*
X95071428Y-108264342D01*
X95071428Y-108264342D02*
X94976190Y-108216723D01*
X94976190Y-108216723D02*
X94880952Y-108216723D01*
X94928571Y-108454819D02*
X94833333Y-108407200D01*
X94833333Y-108407200D02*
X94738095Y-108311961D01*
X94738095Y-108311961D02*
X94690476Y-108121485D01*
X94690476Y-108121485D02*
X94690476Y-107788152D01*
X94690476Y-107788152D02*
X94738095Y-107597676D01*
X94738095Y-107597676D02*
X94833333Y-107502438D01*
X94833333Y-107502438D02*
X94928571Y-107454819D01*
X94928571Y-107454819D02*
X95119047Y-107454819D01*
X95119047Y-107454819D02*
X95214285Y-107502438D01*
X95214285Y-107502438D02*
X95309523Y-107597676D01*
X95309523Y-107597676D02*
X95357142Y-107788152D01*
X95357142Y-107788152D02*
X95357142Y-108121485D01*
X95357142Y-108121485D02*
X95309523Y-108311961D01*
X95309523Y-108311961D02*
X95214285Y-108407200D01*
X95214285Y-108407200D02*
X95119047Y-108454819D01*
X95119047Y-108454819D02*
X94928571Y-108454819D01*
X96309523Y-108454819D02*
X95738095Y-108454819D01*
X96023809Y-108454819D02*
X96023809Y-107454819D01*
X96023809Y-107454819D02*
X95928571Y-107597676D01*
X95928571Y-107597676D02*
X95833333Y-107692914D01*
X95833333Y-107692914D02*
X95738095Y-107740533D01*
X105404761Y-73550057D02*
X105309523Y-73502438D01*
X105309523Y-73502438D02*
X105214285Y-73407200D01*
X105214285Y-73407200D02*
X105071428Y-73264342D01*
X105071428Y-73264342D02*
X104976190Y-73216723D01*
X104976190Y-73216723D02*
X104880952Y-73216723D01*
X104928571Y-73454819D02*
X104833333Y-73407200D01*
X104833333Y-73407200D02*
X104738095Y-73311961D01*
X104738095Y-73311961D02*
X104690476Y-73121485D01*
X104690476Y-73121485D02*
X104690476Y-72788152D01*
X104690476Y-72788152D02*
X104738095Y-72597676D01*
X104738095Y-72597676D02*
X104833333Y-72502438D01*
X104833333Y-72502438D02*
X104928571Y-72454819D01*
X104928571Y-72454819D02*
X105119047Y-72454819D01*
X105119047Y-72454819D02*
X105214285Y-72502438D01*
X105214285Y-72502438D02*
X105309523Y-72597676D01*
X105309523Y-72597676D02*
X105357142Y-72788152D01*
X105357142Y-72788152D02*
X105357142Y-73121485D01*
X105357142Y-73121485D02*
X105309523Y-73311961D01*
X105309523Y-73311961D02*
X105214285Y-73407200D01*
X105214285Y-73407200D02*
X105119047Y-73454819D01*
X105119047Y-73454819D02*
X104928571Y-73454819D01*
X105738095Y-72550057D02*
X105785714Y-72502438D01*
X105785714Y-72502438D02*
X105880952Y-72454819D01*
X105880952Y-72454819D02*
X106119047Y-72454819D01*
X106119047Y-72454819D02*
X106214285Y-72502438D01*
X106214285Y-72502438D02*
X106261904Y-72550057D01*
X106261904Y-72550057D02*
X106309523Y-72645295D01*
X106309523Y-72645295D02*
X106309523Y-72740533D01*
X106309523Y-72740533D02*
X106261904Y-72883390D01*
X106261904Y-72883390D02*
X105690476Y-73454819D01*
X105690476Y-73454819D02*
X106309523Y-73454819D01*
X100166834Y-85023808D02*
X101166834Y-84357142D01*
X100166834Y-84357142D02*
X101166834Y-85023808D01*
X101166834Y-83976189D02*
X100166834Y-83976189D01*
X100881119Y-83547618D02*
X100881119Y-83071428D01*
X101166834Y-83642856D02*
X100166834Y-83309523D01*
X100166834Y-83309523D02*
X101166834Y-82976190D01*
X100166834Y-82452380D02*
X100166834Y-82261904D01*
X100166834Y-82261904D02*
X100214453Y-82166666D01*
X100214453Y-82166666D02*
X100309691Y-82071428D01*
X100309691Y-82071428D02*
X100500167Y-82023809D01*
X100500167Y-82023809D02*
X100833500Y-82023809D01*
X100833500Y-82023809D02*
X101023976Y-82071428D01*
X101023976Y-82071428D02*
X101119215Y-82166666D01*
X101119215Y-82166666D02*
X101166834Y-82261904D01*
X101166834Y-82261904D02*
X101166834Y-82452380D01*
X101166834Y-82452380D02*
X101119215Y-82547618D01*
X101119215Y-82547618D02*
X101023976Y-82642856D01*
X101023976Y-82642856D02*
X100833500Y-82690475D01*
X100833500Y-82690475D02*
X100500167Y-82690475D01*
X100500167Y-82690475D02*
X100309691Y-82642856D01*
X100309691Y-82642856D02*
X100214453Y-82547618D01*
X100214453Y-82547618D02*
X100166834Y-82452380D01*
X99119215Y-88261904D02*
X99166834Y-88119047D01*
X99166834Y-88119047D02*
X99166834Y-87880952D01*
X99166834Y-87880952D02*
X99119215Y-87785714D01*
X99119215Y-87785714D02*
X99071595Y-87738095D01*
X99071595Y-87738095D02*
X98976357Y-87690476D01*
X98976357Y-87690476D02*
X98881119Y-87690476D01*
X98881119Y-87690476D02*
X98785881Y-87738095D01*
X98785881Y-87738095D02*
X98738262Y-87785714D01*
X98738262Y-87785714D02*
X98690643Y-87880952D01*
X98690643Y-87880952D02*
X98643024Y-88071428D01*
X98643024Y-88071428D02*
X98595405Y-88166666D01*
X98595405Y-88166666D02*
X98547786Y-88214285D01*
X98547786Y-88214285D02*
X98452548Y-88261904D01*
X98452548Y-88261904D02*
X98357310Y-88261904D01*
X98357310Y-88261904D02*
X98262072Y-88214285D01*
X98262072Y-88214285D02*
X98214453Y-88166666D01*
X98214453Y-88166666D02*
X98166834Y-88071428D01*
X98166834Y-88071428D02*
X98166834Y-87833333D01*
X98166834Y-87833333D02*
X98214453Y-87690476D01*
X99119215Y-86880952D02*
X99166834Y-86976190D01*
X99166834Y-86976190D02*
X99166834Y-87166666D01*
X99166834Y-87166666D02*
X99119215Y-87261904D01*
X99119215Y-87261904D02*
X99023976Y-87309523D01*
X99023976Y-87309523D02*
X98643024Y-87309523D01*
X98643024Y-87309523D02*
X98547786Y-87261904D01*
X98547786Y-87261904D02*
X98500167Y-87166666D01*
X98500167Y-87166666D02*
X98500167Y-86976190D01*
X98500167Y-86976190D02*
X98547786Y-86880952D01*
X98547786Y-86880952D02*
X98643024Y-86833333D01*
X98643024Y-86833333D02*
X98738262Y-86833333D01*
X98738262Y-86833333D02*
X98833500Y-87309523D01*
X99119215Y-86023809D02*
X99166834Y-86119047D01*
X99166834Y-86119047D02*
X99166834Y-86309523D01*
X99166834Y-86309523D02*
X99119215Y-86404761D01*
X99119215Y-86404761D02*
X99023976Y-86452380D01*
X99023976Y-86452380D02*
X98643024Y-86452380D01*
X98643024Y-86452380D02*
X98547786Y-86404761D01*
X98547786Y-86404761D02*
X98500167Y-86309523D01*
X98500167Y-86309523D02*
X98500167Y-86119047D01*
X98500167Y-86119047D02*
X98547786Y-86023809D01*
X98547786Y-86023809D02*
X98643024Y-85976190D01*
X98643024Y-85976190D02*
X98738262Y-85976190D01*
X98738262Y-85976190D02*
X98833500Y-86452380D01*
X99119215Y-85166666D02*
X99166834Y-85261904D01*
X99166834Y-85261904D02*
X99166834Y-85452380D01*
X99166834Y-85452380D02*
X99119215Y-85547618D01*
X99119215Y-85547618D02*
X99023976Y-85595237D01*
X99023976Y-85595237D02*
X98643024Y-85595237D01*
X98643024Y-85595237D02*
X98547786Y-85547618D01*
X98547786Y-85547618D02*
X98500167Y-85452380D01*
X98500167Y-85452380D02*
X98500167Y-85261904D01*
X98500167Y-85261904D02*
X98547786Y-85166666D01*
X98547786Y-85166666D02*
X98643024Y-85119047D01*
X98643024Y-85119047D02*
X98738262Y-85119047D01*
X98738262Y-85119047D02*
X98833500Y-85595237D01*
X99166834Y-84261904D02*
X98166834Y-84261904D01*
X99119215Y-84261904D02*
X99166834Y-84357142D01*
X99166834Y-84357142D02*
X99166834Y-84547618D01*
X99166834Y-84547618D02*
X99119215Y-84642856D01*
X99119215Y-84642856D02*
X99071595Y-84690475D01*
X99071595Y-84690475D02*
X98976357Y-84738094D01*
X98976357Y-84738094D02*
X98690643Y-84738094D01*
X98690643Y-84738094D02*
X98595405Y-84690475D01*
X98595405Y-84690475D02*
X98547786Y-84642856D01*
X98547786Y-84642856D02*
X98500167Y-84547618D01*
X98500167Y-84547618D02*
X98500167Y-84357142D01*
X98500167Y-84357142D02*
X98547786Y-84261904D01*
X99119215Y-83071427D02*
X99166834Y-82928570D01*
X99166834Y-82928570D02*
X99166834Y-82690475D01*
X99166834Y-82690475D02*
X99119215Y-82595237D01*
X99119215Y-82595237D02*
X99071595Y-82547618D01*
X99071595Y-82547618D02*
X98976357Y-82499999D01*
X98976357Y-82499999D02*
X98881119Y-82499999D01*
X98881119Y-82499999D02*
X98785881Y-82547618D01*
X98785881Y-82547618D02*
X98738262Y-82595237D01*
X98738262Y-82595237D02*
X98690643Y-82690475D01*
X98690643Y-82690475D02*
X98643024Y-82880951D01*
X98643024Y-82880951D02*
X98595405Y-82976189D01*
X98595405Y-82976189D02*
X98547786Y-83023808D01*
X98547786Y-83023808D02*
X98452548Y-83071427D01*
X98452548Y-83071427D02*
X98357310Y-83071427D01*
X98357310Y-83071427D02*
X98262072Y-83023808D01*
X98262072Y-83023808D02*
X98214453Y-82976189D01*
X98214453Y-82976189D02*
X98166834Y-82880951D01*
X98166834Y-82880951D02*
X98166834Y-82642856D01*
X98166834Y-82642856D02*
X98214453Y-82499999D01*
X98500167Y-82214284D02*
X98500167Y-81833332D01*
X98166834Y-82071427D02*
X99023976Y-82071427D01*
X99023976Y-82071427D02*
X99119215Y-82023808D01*
X99119215Y-82023808D02*
X99166834Y-81928570D01*
X99166834Y-81928570D02*
X99166834Y-81833332D01*
X98500167Y-81071427D02*
X99166834Y-81071427D01*
X98500167Y-81499998D02*
X99023976Y-81499998D01*
X99023976Y-81499998D02*
X99119215Y-81452379D01*
X99119215Y-81452379D02*
X99166834Y-81357141D01*
X99166834Y-81357141D02*
X99166834Y-81214284D01*
X99166834Y-81214284D02*
X99119215Y-81119046D01*
X99119215Y-81119046D02*
X99071595Y-81071427D01*
X99166834Y-80166665D02*
X98166834Y-80166665D01*
X99119215Y-80166665D02*
X99166834Y-80261903D01*
X99166834Y-80261903D02*
X99166834Y-80452379D01*
X99166834Y-80452379D02*
X99119215Y-80547617D01*
X99119215Y-80547617D02*
X99071595Y-80595236D01*
X99071595Y-80595236D02*
X98976357Y-80642855D01*
X98976357Y-80642855D02*
X98690643Y-80642855D01*
X98690643Y-80642855D02*
X98595405Y-80595236D01*
X98595405Y-80595236D02*
X98547786Y-80547617D01*
X98547786Y-80547617D02*
X98500167Y-80452379D01*
X98500167Y-80452379D02*
X98500167Y-80261903D01*
X98500167Y-80261903D02*
X98547786Y-80166665D01*
X99166834Y-79690474D02*
X98500167Y-79690474D01*
X98166834Y-79690474D02*
X98214453Y-79738093D01*
X98214453Y-79738093D02*
X98262072Y-79690474D01*
X98262072Y-79690474D02*
X98214453Y-79642855D01*
X98214453Y-79642855D02*
X98166834Y-79690474D01*
X98166834Y-79690474D02*
X98262072Y-79690474D01*
X99166834Y-79071427D02*
X99119215Y-79166665D01*
X99119215Y-79166665D02*
X99071595Y-79214284D01*
X99071595Y-79214284D02*
X98976357Y-79261903D01*
X98976357Y-79261903D02*
X98690643Y-79261903D01*
X98690643Y-79261903D02*
X98595405Y-79214284D01*
X98595405Y-79214284D02*
X98547786Y-79166665D01*
X98547786Y-79166665D02*
X98500167Y-79071427D01*
X98500167Y-79071427D02*
X98500167Y-78928570D01*
X98500167Y-78928570D02*
X98547786Y-78833332D01*
X98547786Y-78833332D02*
X98595405Y-78785713D01*
X98595405Y-78785713D02*
X98690643Y-78738094D01*
X98690643Y-78738094D02*
X98976357Y-78738094D01*
X98976357Y-78738094D02*
X99071595Y-78785713D01*
X99071595Y-78785713D02*
X99119215Y-78833332D01*
X99119215Y-78833332D02*
X99166834Y-78928570D01*
X99166834Y-78928570D02*
X99166834Y-79071427D01*
D12*
X92185000Y-58875000D02*
X92185000Y-59500000D01*
X92497500Y-59187500D02*
X91872500Y-59187500D01*
X92195563Y-59740000D02*
X91560000Y-59740000D01*
X92195563Y-59740000D02*
X93260000Y-60804437D01*
X88804437Y-59740000D02*
X89440000Y-59740000D01*
X88804437Y-59740000D02*
X87740000Y-60804437D01*
X93260000Y-60804437D02*
X93260000Y-65260000D01*
X87740000Y-60804437D02*
X87740000Y-65260000D01*
X93260000Y-65260000D02*
X91560000Y-65260000D01*
X87740000Y-65260000D02*
X89440000Y-65260000D01*
D13*
X110447895Y-97635101D02*
G75*
G03*
X110447895Y-97635101I-76200J0D01*
G01*
X182630100Y-143631900D02*
X182630100Y-90368100D01*
X182630100Y-90368100D02*
X107369900Y-90368100D01*
X107369900Y-143631900D02*
X182630100Y-143631900D01*
X107369900Y-90368100D02*
X107369900Y-143631900D01*
D12*
X104185000Y-96375000D02*
X104185000Y-97000000D01*
X104497500Y-96687500D02*
X103872500Y-96687500D01*
X104195563Y-97240000D02*
X103560000Y-97240000D01*
X104195563Y-97240000D02*
X105260000Y-98304437D01*
X100804437Y-97240000D02*
X101440000Y-97240000D01*
X100804437Y-97240000D02*
X99740000Y-98304437D01*
X105260000Y-98304437D02*
X105260000Y-102760000D01*
X99740000Y-98304437D02*
X99740000Y-102760000D01*
X105260000Y-102760000D02*
X103560000Y-102760000D01*
X99740000Y-102760000D02*
X101440000Y-102760000D01*
X85830000Y-108995000D02*
X85830000Y-111595000D01*
X83170000Y-111595000D02*
X85830000Y-111595000D01*
X83170000Y-108995000D02*
X85830000Y-108995000D01*
X83170000Y-108995000D02*
X83170000Y-111595000D01*
X83170000Y-107725000D02*
X83170000Y-106395000D01*
X83170000Y-106395000D02*
X84500000Y-106395000D01*
X106735000Y-86800000D02*
X106735000Y-84340000D01*
X105265000Y-84340000D02*
X105265000Y-86800000D01*
X106735000Y-84340000D02*
X105265000Y-84340000D01*
X90254724Y-109022500D02*
X89745276Y-109022500D01*
X90254724Y-107977500D02*
X89745276Y-107977500D01*
X83800000Y-61050000D02*
X85200000Y-61050000D01*
X83800000Y-62450000D02*
X83800000Y-61050000D01*
X85200000Y-61050000D02*
X85200000Y-62450000D01*
X85200000Y-62450000D02*
X83800000Y-62450000D01*
X105265000Y-81200000D02*
X105265000Y-83660000D01*
X106735000Y-83660000D02*
X106735000Y-81200000D01*
X105265000Y-83660000D02*
X106735000Y-83660000D01*
X104185000Y-104875000D02*
X104185000Y-105500000D01*
X104497500Y-105187500D02*
X103872500Y-105187500D01*
X104195563Y-105740000D02*
X103560000Y-105740000D01*
X104195563Y-105740000D02*
X105260000Y-106804437D01*
X100804437Y-105740000D02*
X101440000Y-105740000D01*
X100804437Y-105740000D02*
X99740000Y-106804437D01*
X105260000Y-106804437D02*
X105260000Y-111260000D01*
X99740000Y-106804437D02*
X99740000Y-111260000D01*
X105260000Y-111260000D02*
X103560000Y-111260000D01*
X99740000Y-111260000D02*
X101440000Y-111260000D01*
X87160000Y-72735000D02*
X87160000Y-71265000D01*
X87160000Y-71265000D02*
X84700000Y-71265000D01*
X84700000Y-72735000D02*
X87160000Y-72735000D01*
D14*
X98512500Y-98825000D02*
G75*
G03*
X98512500Y-98825000I-200000J0D01*
G01*
D15*
X82612500Y-94325000D02*
X97012500Y-94325000D01*
X82612500Y-103325000D02*
X82612500Y-94325000D01*
X90762500Y-103325000D02*
X82612500Y-103325000D01*
X97012500Y-94325000D02*
X97012500Y-96175000D01*
X97012500Y-101375000D02*
X97012500Y-103325000D01*
X97012500Y-103325000D02*
X95862500Y-103325000D01*
D12*
X85200000Y-67200000D02*
X83800000Y-67200000D01*
X85200000Y-65800000D02*
X85200000Y-67200000D01*
X83800000Y-67200000D02*
X83800000Y-65800000D01*
X83800000Y-65800000D02*
X85200000Y-65800000D01*
X85200000Y-57700000D02*
X83800000Y-57700000D01*
X85200000Y-56300000D02*
X85200000Y-57700000D01*
X83800000Y-57700000D02*
X83800000Y-56300000D01*
X83800000Y-56300000D02*
X85200000Y-56300000D01*
D13*
X110447895Y-43635101D02*
G75*
G03*
X110447895Y-43635101I-76200J0D01*
G01*
X182630100Y-89631900D02*
X182630100Y-36368100D01*
X182630100Y-36368100D02*
X107369900Y-36368100D01*
X107369900Y-89631900D02*
X182630100Y-89631900D01*
X107369900Y-36368100D02*
X107369900Y-89631900D01*
D12*
X99740000Y-54760000D02*
X101440000Y-54760000D01*
X105260000Y-54760000D02*
X103560000Y-54760000D01*
X99740000Y-50304437D02*
X99740000Y-54760000D01*
X105260000Y-50304437D02*
X105260000Y-54760000D01*
X100804437Y-49240000D02*
X99740000Y-50304437D01*
X100804437Y-49240000D02*
X101440000Y-49240000D01*
X104195563Y-49240000D02*
X105260000Y-50304437D01*
X104195563Y-49240000D02*
X103560000Y-49240000D01*
X104497500Y-48687500D02*
X103872500Y-48687500D01*
X104185000Y-48375000D02*
X104185000Y-49000000D01*
D13*
X106121400Y-66172660D02*
X106121400Y-58827340D01*
X103672660Y-56378600D02*
X96327340Y-56378600D01*
X96327340Y-68621400D02*
X103672660Y-68621400D01*
X93878600Y-58827340D02*
X93878600Y-66172660D01*
D12*
X91200000Y-114700000D02*
X89800000Y-114700000D01*
X91200000Y-113300000D02*
X91200000Y-114700000D01*
X89800000Y-114700000D02*
X89800000Y-113300000D01*
X89800000Y-113300000D02*
X91200000Y-113300000D01*
X89853733Y-107010000D02*
X90146267Y-107010000D01*
X89853733Y-105990000D02*
X90146267Y-105990000D01*
X95000000Y-111735000D02*
X94340000Y-111735000D01*
X96660000Y-111735000D02*
X96660000Y-109000000D01*
X96670000Y-111735000D02*
X96000000Y-111735000D01*
X94340000Y-110325000D02*
X94340000Y-111735000D01*
X104735000Y-71500000D02*
X104735000Y-72160000D01*
X104735000Y-69840000D02*
X102000000Y-69840000D01*
X104735000Y-69830000D02*
X104735000Y-70500000D01*
X103325000Y-72160000D02*
X104735000Y-72160000D01*
D16*
X102782865Y-74612287D02*
X102831633Y-74615335D01*
X102880654Y-74619399D01*
X102929422Y-74624732D01*
X102978190Y-74631336D01*
X103026705Y-74638956D01*
X103074965Y-74647847D01*
X103122970Y-74657752D01*
X102733589Y-74610508D01*
X102782865Y-74612287D01*
X85650310Y-92387715D02*
X85601542Y-92384667D01*
X85552521Y-92380603D01*
X85650310Y-92387715D01*
D17*
X85539015Y-94500000D02*
G75*
G03*
X85539015Y-94500000I-127000J0D01*
G01*
D12*
X104712015Y-76600000D02*
G75*
G03*
X102712015Y-74600000I-2000000J0D01*
G01*
X85712015Y-74600000D02*
G75*
G03*
X83712015Y-76600000I44600J-2044600D01*
G01*
X102712015Y-92399999D02*
G75*
G03*
X104712014Y-90400000I-44857J2044856D01*
G01*
X83712016Y-90400000D02*
G75*
G03*
X85712015Y-92399999I2044611J44612D01*
G01*
D15*
X102712015Y-74600000D02*
X85712015Y-74600000D01*
X83712925Y-76600000D02*
X83712925Y-90400000D01*
X89641285Y-79000000D02*
X89641285Y-88000000D01*
X82287985Y-79000000D02*
X89641285Y-79000000D01*
X89641285Y-88000000D02*
X82287985Y-88000000D01*
X82287985Y-88000000D02*
X82287985Y-79000000D01*
X104712015Y-90400000D02*
X104712015Y-76600000D01*
X85712015Y-92400000D02*
X102712015Y-92400000D01*
%LPC*%
D18*
X86500000Y-45000000D03*
X86500000Y-135000000D03*
X186500000Y-135000000D03*
X186500000Y-45000000D03*
D19*
X186500000Y-107000000D03*
X186500000Y-97000000D03*
D20*
X186500000Y-83000000D03*
X186500000Y-73000000D03*
D21*
X84500000Y-114770000D03*
X84500000Y-113500000D03*
D22*
X90500000Y-60300000D03*
X90500000Y-64700000D03*
D23*
X176499997Y-130835101D03*
X176499997Y-136735101D03*
X115099997Y-135385101D03*
X115099997Y-129385101D03*
X115099997Y-121935100D03*
X115099997Y-97635101D03*
D22*
X102500000Y-97800000D03*
X102500000Y-102200000D03*
D24*
X84500000Y-110265000D03*
D25*
X84500000Y-107725000D03*
D26*
X106000000Y-86875000D03*
X106000000Y-85125000D03*
D27*
X90912500Y-108500000D03*
X89087500Y-108500000D03*
D28*
X84500000Y-61750000D03*
D29*
X106000000Y-81125000D03*
X106000000Y-82875000D03*
D22*
X102500000Y-106300000D03*
X102500000Y-110700000D03*
D30*
X86375000Y-72000000D03*
X84625000Y-72000000D03*
D31*
X93312500Y-103525000D03*
D32*
X90312500Y-98825000D03*
D33*
X96312500Y-98825000D03*
D28*
X84500000Y-66500000D03*
X84500000Y-57000000D03*
D23*
X176499997Y-76835101D03*
X176499997Y-82735101D03*
X115099997Y-81385101D03*
X115099997Y-75385101D03*
X115099997Y-67935100D03*
X115099997Y-43635101D03*
D22*
X102500000Y-54200000D03*
X102500000Y-49800000D03*
D34*
X105250000Y-67750000D03*
X105250000Y-57250000D03*
X94750000Y-57250000D03*
X94750000Y-67750000D03*
D28*
X90500000Y-114000000D03*
D35*
X90862500Y-106500000D03*
X89137500Y-106500000D03*
D36*
X95500000Y-112330000D03*
X94850000Y-109670000D03*
X96150000Y-109670000D03*
D37*
X105330000Y-71000000D03*
X102670000Y-71650000D03*
X102670000Y-70350000D03*
D38*
X94812015Y-81400000D03*
D39*
X93812015Y-88000000D03*
X91912015Y-88000000D03*
D40*
X90712015Y-82230000D03*
X90712015Y-84770000D03*
X88172015Y-82230000D03*
X88172015Y-84770000D03*
X85632015Y-82230000D03*
X85632015Y-84770000D03*
D41*
X86592015Y-75000000D03*
X89132015Y-75000000D03*
X91672015Y-75000000D03*
X94212015Y-75000000D03*
X96752015Y-75000000D03*
X99292015Y-75000000D03*
X101832015Y-75000000D03*
X101832015Y-92000000D03*
X99292015Y-92000000D03*
X96752015Y-92000000D03*
X94212015Y-92000000D03*
X91672015Y-92000000D03*
X89132015Y-92000000D03*
X86592015Y-92000000D03*
%LPD*%
M02*
